<?xml version="1.0" encoding="UTF-8" standalone="no"?>
<!-- Created with Inkscape (http://www.inkscape.org/) -->

<svg
   width="512"
   height="512"
   viewBox="0 0 512 512"
   version="1.1"
   id="svg1"
   inkscape:version="1.3.2 (091e20e, 2023-11-25, custom)"
   xml:space="preserve"
   xmlns:inkscape="http://www.inkscape.org/namespaces/inkscape"
   xmlns:sodipodi="http://sodipodi.sourceforge.net/DTD/sodipodi-0.dtd"
   xmlns="http://www.w3.org/2000/svg"
   xmlns:svg="http://www.w3.org/2000/svg"><sodipodi:namedview
     id="namedview1"
     pagecolor="#ffffff"
     bordercolor="#111111"
     borderopacity="1"
     inkscape:showpageshadow="0"
     inkscape:pageopacity="0"
     inkscape:pagecheckerboard="1"
     inkscape:deskcolor="#d1d1d1"
     inkscape:document-units="px" /><defs
     id="defs1"><inkscape:path-effect
       effect="skeletal"
       id="path-effect5"
       is_visible="true"
       lpeversion="1"
       pattern="#path3"
       copytype="single_stretched"
       prop_scale="0.75"
       scale_y_rel="false"
       spacing="0"
       normal_offset="0"
       tang_offset="0"
       prop_units="false"
       vertical_pattern="false"
       hide_knot="false"
       fuse_tolerance="0" /><inkscape:path-effect
       effect="skeletal"
       id="path-effect1"
       is_visible="true"
       lpeversion="1"
       pattern="#path3"
       copytype="single_stretched"
       prop_scale="0.3"
       scale_y_rel="false"
       spacing="0"
       normal_offset="0"
       tang_offset="0"
       prop_units="false"
       vertical_pattern="false"
       hide_knot="false"
       fuse_tolerance="0" /></defs><g
     inkscape:label="圖層 1"
     inkscape:groupmode="layer"
     id="layer1"><circle
       style="display:inline;fill:#1f1104;fill-opacity:1;stroke:#3a2006;stroke-width:10;stroke-linecap:round;stroke-linejoin:round;stroke-opacity:1;paint-order:markers fill stroke"
       id="path1"
       cx="256.31488"
       cy="256"
       r="233.95819" /><path
       id="circle1"
       style="fill:#3a2006;fill-opacity:1;stroke:none;stroke-width:10;stroke-linecap:round;stroke-linejoin:round;paint-order:markers fill stroke"
       d="m 99.733278,255.99989 c -2.422551,19.29031 -0.640048,41.21168 7.299492,63.06591 7.00013,19.25273 18.4016,37.41922 33.59372,52.62258 0,0 0,1e-5 0,1e-5 0.0797,0.0798 0.15958,0.15949 0.23951,0.2391 15.17163,15.07319 33.25602,26.37602 52.39699,33.32173 21.87059,7.92979 43.78975,9.68722 63.05189,7.24742 -19.21133,-2.43323 -39.40802,-7.83933 -58.77935,-17.34884 -16.96352,-8.32088 -32.8698,-19.55582 -46.63365,-33.29796 1e-5,1e-5 -0.21896,-0.21789 -0.21896,-0.21789 -13.85493,-13.81081 -25.17435,-29.79261 -33.54929,-46.83845 -9.53156,-19.38467 -14.95005,-39.5887 -17.400352,-58.79361 z"
       sodipodi:nodetypes="cc"
       inkscape:path-effect="#path-effect1"
       inkscape:original-d="M 256.31488,412.49693 C 169.88401,412.49693 99.817947,342.43087 99.817947,256" /><path
       id="path4"
       style="fill:#d59e69;fill-opacity:1;stroke:none;stroke-width:8.97135;stroke-linecap:round;stroke-linejoin:round;paint-order:markers fill stroke"
       d="m 256.31488,412.30703 c -19.16359,-5.40716 -38.29546,-13.07619 -56.09328,-23.5098 -15.685,-9.17838 -30.36065,-20.46159 -43.28899,-33.41495 0,0 -1e-5,0 -1e-5,0 -1e-5,-10e-6 -0.20518,-0.20582 -0.20519,-0.20583 -12.89188,-12.86608 -24.1312,-27.46461 -33.28348,-43.05198 -10.47595,-17.8097 -18.18051,-36.95359 -23.626636,-56.12457 -5.478334,19.28532 -5.966955,42.29239 0.970776,65.70718 6.0807,20.48364 17.44714,39.94243 33.33679,55.9782 0.0842,0.0841 0.16842,0.16807 0.2528,0.25194 16.1067,16.00726 35.67562,27.43396 56.26187,33.51455 23.43278,6.90839 46.4312,6.37183 65.67535,0.85526 z"
       sodipodi:nodetypes="cc"
       inkscape:path-effect="#path-effect5"
       inkscape:original-d="M 256.31488,412.49693 C 169.88401,412.49693 99.817947,342.43087 99.817947,256"
       transform="matrix(-1.1146596,0,0,-1.1146596,542.01872,541.35262)" /></g></svg>
