<?xml version="1.0" encoding="UTF-8" standalone="no"?>
<!-- Created with Inkscape (http://www.inkscape.org/) -->

<svg
   width="512"
   height="512"
   viewBox="0 0 512 512"
   version="1.1"
   id="svg1"
   inkscape:version="1.3.2 (091e20e, 2023-11-25, custom)"
   inkscape:export-filename="caramel.png"
   inkscape:export-xdpi="96"
   inkscape:export-ydpi="96"
   xmlns:inkscape="http://www.inkscape.org/namespaces/inkscape"
   xmlns:sodipodi="http://sodipodi.sourceforge.net/DTD/sodipodi-0.dtd"
   xmlns="http://www.w3.org/2000/svg"
   xmlns:svg="http://www.w3.org/2000/svg">
  <sodipodi:namedview
     id="namedview1"
     pagecolor="#ffffff"
     bordercolor="#111111"
     borderopacity="1"
     inkscape:showpageshadow="0"
     inkscape:pageopacity="0"
     inkscape:pagecheckerboard="1"
     inkscape:deskcolor="#d1d1d1"
     inkscape:document-units="px"
     inkscape:zoom="1.1228082"
     inkscape:cx="285.89032"
     inkscape:cy="275.64814"
     inkscape:window-width="1920"
     inkscape:window-height="1009"
     inkscape:window-x="-8"
     inkscape:window-y="-8"
     inkscape:window-maximized="1"
     inkscape:current-layer="layer2" />
  <defs
     id="defs1">
    <inkscape:path-effect
       effect="spiro"
       id="path-effect8"
       is_visible="true"
       lpeversion="1" />
    <inkscape:path-effect
       effect="simplify"
       id="path-effect7"
       is_visible="true"
       lpeversion="1.3"
       threshold="24.3902"
       steps="1"
       smooth_angles="360"
       helper_size="0"
       simplify_individual_paths="false"
       simplify_just_coalesce="false" />
    <inkscape:path-effect
       effect="envelope"
       id="path-effect6"
       is_visible="true"
       lpeversion="1"
       yy="true"
       xx="true"
       bendpath1="M 101.39236,127.1352 428.86752,110.13151"
       bendpath2="m 343.84907,103.83385 115.877,318.95336"
       bendpath3="M 13.225087,354.14268 492.47392,371.14637"
       bendpath4="M 134.14022,80.532498 48.492,386.26077"
       bendpath1-nodetypes="cc"
       bendpath2-nodetypes="cc"
       bendpath3-nodetypes="cc"
       bendpath4-nodetypes="cc" />
    <inkscape:path-effect
       effect="lattice2"
       gridpoint0="63.606391,27.002363"
       gridpoint1="464.7642,27.002363"
       gridpoint2="63.606391,463.72202"
       gridpoint3="464.7642,463.72202"
       gridpoint4="163.89584,27.002363"
       gridpoint5="364.47475,27.002363"
       gridpoint6="163.89584,463.72202"
       gridpoint7="364.47475,463.72202"
       gridpoint8x9="264.1853,27.002363"
       gridpoint10x11="264.1853,463.72202"
       gridpoint12="63.606391,136.18228"
       gridpoint13="464.7642,136.18228"
       gridpoint14="63.606391,354.5421"
       gridpoint15="464.7642,354.5421"
       gridpoint16="163.89584,136.18228"
       gridpoint17="364.47475,136.18228"
       gridpoint18="163.89584,354.5421"
       gridpoint19="364.47475,354.5421"
       gridpoint20x21="264.1853,136.18228"
       gridpoint22x23="264.1853,354.5421"
       gridpoint24x26="63.606391,245.36219"
       gridpoint25x27="464.7642,245.36219"
       gridpoint28x30="163.89584,245.36219"
       gridpoint29x31="364.47475,245.36219"
       gridpoint32x33x34x35="264.1853,245.36219"
       id="path-effect5"
       is_visible="true"
       lpeversion="1"
       horizontal_mirror="false"
       vertical_mirror="false"
       perimetral="false"
       live_update="true" />
    <inkscape:path-effect
       effect="perspective-envelope"
       up_left_point="63.606391,27.002363"
       up_right_point="464.7642,27.002363"
       down_left_point="63.606391,463.72202"
       down_right_point="464.7642,463.72202"
       id="path-effect4"
       is_visible="true"
       lpeversion="1"
       deform_type="perspective"
       horizontal_mirror="false"
       vertical_mirror="false"
       overflow_perspective="false" />
    <inkscape:path-effect
       effect="envelope"
       id="path-effect3"
       is_visible="true"
       lpeversion="1"
       yy="true"
       xx="true"
       bendpath1="M 130.36162,37.70839 385.41365,37.078624"
       bendpath2="M 385.41365,50.303716 464.7642,463.72202"
       bendpath3="M 63.606391,463.72202 H 464.7642"
       bendpath4="M 63.606391,27.002363 V 463.72202"
       bendpath1-nodetypes="cc"
       bendpath2-nodetypes="cc" />
  </defs>
  <g
     inkscape:label="圖層 1"
     inkscape:groupmode="layer"
     id="layer1"
     transform="translate(7.2046456,17.010416)">
    <path
       style="fill:#4d3709;fill-opacity:1;stroke:#4d3709;stroke-width:11.2352;stroke-linecap:round;stroke-linejoin:round;stroke-opacity:1;paint-order:markers fill stroke"
       d="m 66.796803,279.65595 c -9.613078,-4.20486 -20.897955,-4.42647 -30.668703,-0.60225 -9.770747,3.82422 -17.90703,11.64716 -22.111827,21.26027 -3.461701,7.91423 -4.2708925,16.94748 -2.357773,25.37116 1.913119,8.42367 6.525343,16.19921 12.940843,21.98365 3.618814,3.26284 7.758578,5.88228 11.751011,8.67557 3.992432,2.79329 7.904131,5.82298 10.85272,9.70213 3.534728,4.65027 5.517722,10.31445 6.684559,16.0379 1.166837,5.72344 1.56788,11.5705 2.258702,17.37068 0.690823,5.80018 1.691602,11.62904 3.978287,17.00402 2.286686,5.37497 5.970656,10.31057 11.043769,13.20589 5.53513,3.15899 12.311256,3.64145 18.557446,2.37574 6.24619,-1.26571 12.046493,-4.15584 17.520483,-7.41965 5.47398,-3.2638 10.70892,-6.93149 16.31845,-9.95641 5.60952,-3.02492 11.6872,-5.41846 18.04445,-5.86822 6.7301,-0.47614 13.50565,1.26999 19.52106,4.32545 6.01541,3.05546 11.31405,7.38024 16.05766,12.17808 9.4872,9.59568 16.87417,21.11904 26.51655,30.55878 18.76948,18.37501 45.25,27.66153 71.49834,28.64074 22.90369,0.85444 46.17426,-4.37105 65.90618,-16.03124 23.81099,-14.07064 41.42722,-36.5801 63.80046,-52.84 13.82096,-10.04446 29.35787,-17.62785 42.71981,-28.27533 7.40324,-5.89928 14.11905,-12.75009 19.26789,-20.69357 5.14884,-7.94349 8.69718,-17.01662 9.58669,-26.44096 0.98053,-10.3887 -1.32051,-21.00147 -6.12169,-30.2662 -4.80118,-9.26473 -12.04838,-17.18734 -20.59703,-23.17124 -10.18091,-7.12645 -22.0473,-11.48793 -34.05282,-14.69801 -12.00552,-3.21008 -24.27616,-5.34236 -36.30648,-8.45821 -27.32587,-7.07739 -53.28485,-19.19327 -81.03008,-24.38893 -29.43446,-5.51199 -59.92128,-3.00498 -89.16027,3.46427 -25.30726,5.59935 -49.86257,14.10971 -74.7855,21.22709 -22.26542,6.35846 -44.846906,11.61002 -67.633187,15.7288 z"
       id="path7"
       inkscape:path-effect="#path-effect7;#path-effect8"
       inkscape:original-d="m 66.796803,279.65595 c -15.134714,-9.14774 -34.731496,-4.83847 -45.421826,8.90624 -2.125539,2.73283 -3.358347,6.06996 -5.343744,8.90624 -5.353003,7.64715 -10.9346397,14.74429 -15.14060896,23.15622 -0.83835774,1.67672 -3.95640534,12.34673 -1.78124808,14.24999 2.10774914,1.84428 4.85995694,2.80582 7.12499234,4.45312 2.0372589,1.48164 3.2477553,3.94642 5.3437447,5.34374 6.645339,4.43023 19.171701,2.67188 26.718721,2.67188 2.153903,0 17.562874,-0.35741 17.81248,0.89062 1.492447,7.46223 -5.237402,12.30922 -8.90624,17.81248 -3.785242,5.67786 -7.9783,12.38167 -10.687488,18.7031 -2.790097,6.51023 2.317638,25.47387 7.124992,30.28122 5.12084,5.12084 12.065232,8.47487 18.703105,10.68749 3.837433,1.27914 8.06057,3.58497 11.578112,5.34374 4.35251,2.17626 15.009827,-1.1657 18.703105,-1.78124 1.530397,-0.25507 20.08345,-11.80068 22.2656,-13.35936 2.81787,-2.01277 18.56986,-14.24999 22.2656,-14.24999 1.08563,0 3.43506,5.76758 4.45312,7.12499 2.44028,3.2537 3.99116,7.32267 6.23437,10.68749 5.55609,8.33414 13.43016,17.84788 22.2656,22.2656 11.74466,5.87233 25.9751,10.89718 38.29684,16.03124 7.31894,3.04955 15.24679,7.17808 22.2656,10.68748 1.91478,0.9574 3.38746,2.69304 5.34374,3.5625 0.81386,0.36172 1.85326,-0.35083 2.67187,0 1.36436,0.58472 2.17264,2.15067 3.5625,2.67187 1.11189,0.41696 2.45061,-0.41696 3.56249,0 1.38987,0.5212 2.23484,2.00804 3.5625,2.67187 5.23718,2.61859 14.46939,6.45667 20.48435,7.125 1.77036,0.1967 3.65391,-0.56328 5.34375,0 1.1949,0.3983 1.51418,2.17572 2.67187,2.67187 2.45584,1.0525 5.36009,-0.29506 8.01562,0 12.30038,1.36671 23.21556,3.24584 35.62496,-0.89062 1.43609,-0.4787 3.09916,-0.21365 4.45312,-0.89063 0.66551,-0.33276 2.49641,-2.58414 2.67187,-2.67187 0.53107,-0.26553 1.28722,0.32935 1.78125,0 3.51257,-2.34172 8.22304,-10.30686 10.68749,-14.24999 3.72194,-5.9551 8.41896,-11.35341 12.46873,-16.92185 4.92217,-6.76798 8.28243,-13.62618 14.24999,-19.59373 11.67566,-11.67566 38.5365,-17.16426 54.32806,-19.59373 7.08687,-1.09029 16.58439,2.3953 23.15623,-0.89062 5.63816,-2.81908 4.42441,-15.31285 3.5625,-20.48436 -0.76738,-4.60423 -6.05809,-10.32572 -4.45312,-15.14061 1.95805,-5.87416 8.95798,-5.81493 13.35936,-8.01561 2.2842,-1.1421 4.21851,-2.88523 6.23436,-4.45312 2.61811,-2.03631 2.5649,-4.01362 3.5625,-5.34375 0.64224,-0.85631 1.91499,-1.02436 2.67187,-1.78124 2.29048,-2.29049 5.03872,-9.67889 6.23437,-12.46874 0.11695,-0.27287 0,-0.59375 0,-0.89062 0,-0.89063 -0.3983,-1.87528 0,-2.67188 0.56328,-1.12656 2.02385,-1.59183 2.67187,-2.67187 2.77978,-4.63296 2.89619,-17.2484 1.78125,-22.2656 -0.62252,-2.80134 -3.02233,-4.83573 -4.45312,-7.12499 -1.46428,-2.34285 -2.18769,-5.31265 -4.45312,-7.12499 -3.90593,-3.12475 -8.07597,-4.03799 -12.46874,-6.23437 -3.77393,-1.88697 -6.16003,-5.87631 -9.79686,-8.01562 -2.0524,-1.20729 -12.2846,-5.93499 -15.14061,-7.12499 -5.73119,-2.388 -12.02615,-3.41497 -17.81248,-5.34375 -1.8893,-0.62976 -3.42887,-2.12476 -5.34374,-2.67187 -2.30139,-0.65754 -4.79281,-0.35243 -7.125,-0.89062 -9.53772,-2.20101 0.98771,-1.60167 -9.79686,-3.5625 -1.46043,-0.26553 -3.02586,0.40779 -4.45312,0 -0.80738,-0.23068 -1.03021,-1.40573 -1.78125,-1.78125 -2.70791,-1.35395 -6.06098,-0.7466 -8.90624,-1.78124 -4.82414,-1.75424 -8.37287,-5.5581 -12.46874,-8.01562 -5.63039,-3.37824 -11.65933,-4.08077 -17.81248,-6.23437 -2.75972,-0.9659 -5.19702,-2.78495 -8.01561,-3.5625 -16.93684,-4.67223 -35.2697,-5.05382 -52.54682,-8.01561 -16.29862,-2.79405 -30.05159,-4.47864 -46.31245,-2.67187 -2.95059,0.32784 -6.0627,-0.85307 -8.90624,0 -1.90751,0.57225 -3.42888,2.12476 -5.34375,2.67187 -2.30138,0.65754 -4.83245,0.20286 -7.12499,0.89062 -10.39149,3.11745 -20.66534,7.88576 -31.17184,10.68749 -8.74725,2.3326 -17.98667,2.65696 -26.71872,5.34375 -7.31745,2.25152 -14.43023,5.7007 -21.37498,8.01561 -0.84492,0.28164 -1.79336,-0.14642 -2.67187,0 -6.03316,1.00553 -11.97371,4.77468 -17.81248,6.23437 -1.15204,0.28801 -2.41045,-0.28801 -3.5625,0 -5.06277,1.26569 -45.505328,14.37801 -47.203071,13.35936 -1.27284,-0.7637 -2.374997,-1.78125 -3.562496,-2.67187 z"
       transform="matrix(-0.94391247,-0.09038841,-0.12971212,0.82685788,521.13408,76.687622)" />
    <g
       id="g3"
       inkscape:path-effect="#path-effect6"
       transform="matrix(1,0,0,1.2053111,0,-77.5641)"
       style="stroke-width:0.910857">
      <path
         style="fill:#4d3709;fill-opacity:1;stroke:#4d3709;stroke-width:9.10857;stroke-linecap:round;stroke-linejoin:round;stroke-opacity:1;paint-order:markers fill stroke"
         d="m 312.01717,138.71042 c -13.94283,-3.92747 -25.83712,-6.87064 -37.34343,-9.27238 -11.10769,-2.31854 -20.90645,-3.92248 -29.1778,-4.97131 -16.4734,-2.08887 -28.10595,-2.18466 -36.65784,-0.76975 -8.81911,1.45912 -15.19045,4.57949 -22.59783,9.50227 -7.36539,4.89488 -15.69907,11.82819 -27.73158,18.49873 -11.94611,6.62264 -20.89857,8.59184 -27.55446,10.04142 -6.79499,1.47986 -11.4456,2.47353 -15.57943,6.62488 -4.12027,4.13773 -7.51635,11.21144 -11.90597,24.57213 -4.380355,13.33246 -9.610226,33.15291 -18.234646,61.167 -1.411004,4.66141 -3.015952,13.63003 -3.293541,25.29812 -0.273408,11.49234 0.786638,26.14579 5.409751,39.42549 4.707166,13.52113 12.932106,25.38954 28.033026,32.54996 15.92581,7.55156 36.15287,8.96682 68.85179,8.85859 34.2891,-0.11349 56.52088,0.37674 82.04288,2.44063 23.11303,1.86908 42.26248,4.61492 59.05814,7.14167 16.32023,2.45523 31.69037,4.92876 44.45805,5.60826 12.87289,0.68509 25.36837,-0.24652 35.1539,-6.2664 9.83653,-6.05125 13.98479,-15.46517 15.27657,-25.54015 1.29219,-10.0782 -0.21889,-21.33977 -2.7881,-32.17905 -5.20974,-21.97941 -14.82973,-43.42582 -22.80296,-69.37508 -6.45529,-21.00908 -9.45861,-39.50782 -11.30148,-51.29713 -1.97032,-12.60461 -3.02162,-20.46211 -5.41864,-25.41732 -2.41311,-4.9885 -6.09132,-7.07162 -14.99128,-10.31806 -3.69559,-1.34804 -29.11333,-10.18413 -50.90512,-16.32252 z"
         id="path3"
         sodipodi:nodetypes="szcssss"
         inkscape:original-d="M 326.76729,55.195027 C 173.8155,16.373924 195.00224,15.801259 131.67679,76.053586 68.351343,136.30591 64.236153,114.21517 63.606391,275.00673 c 0,26.65133 20.152509,129.1484 138.233699,162.91831 118.08119,33.76992 143.14207,44.45504 203.09959,-31.25152 59.46879,-75.08946 60.65998,-119.61146 59.64124,-190.29369 C 462.87823,98.243542 479.71908,94.01613 326.76729,55.195027 Z" />
      <path
         style="display:inline;fill:#c68e17;fill-opacity:1;stroke:#4d3709;stroke-width:9.27854;stroke-linecap:round;stroke-linejoin:round;stroke-opacity:1;paint-order:markers fill stroke"
         id="rect1"
         width="286.88394"
         height="249.23264"
         x="66.002907"
         y="132.76625"
         ry="69.815033"
         transform="matrix(0.96369076,0.26702081,0,1,0,0)"
         sodipodi:type="rect"
         d="m 156.1473,170.65083 c 31.70515,9.85709 81.98607,7.09128 119.91284,6.51183 16.47437,-0.2517 31.08593,5.03332 42.57837,12.99088 11.27197,7.8049 19.97177,18.55357 22.12879,28.90596 4.28974,20.58825 8.76368,35.15723 12.04184,46.54302 1.66909,5.79712 -5.98038,9.51096 -20.77112,12.90361 -14.65359,3.36118 -36.01227,6.69349 -58.35064,10.90818 -56.69809,10.69749 -110.85821,30.77003 -157.50616,37.47469 -18.746971,2.69449 -31.263409,-1.33869 -38.265926,-12.75447 -6.750054,-11.0042 -7.386566,-28.06226 -2.43583,-42.43378 9.132179,-26.50986 17.380548,-55.88879 24.190732,-82.51727 3.724974,-14.56501 11.122444,-20.71635 20.676954,-22.62851 9.04572,-1.81034 22.35772,-0.0834 35.80015,4.09586 z" />
      <path
         style="display:inline;fill:#c68e17;fill-opacity:1;stroke:#4d3709;stroke-width:11.2771;stroke-linecap:round;stroke-linejoin:round;stroke-opacity:1;paint-order:markers fill stroke"
         id="rect2"
         width="182.83865"
         height="242.0173"
         x="-712.11932"
         y="635.07343"
         ry="67.793869"
         transform="matrix(-0.65239196,0.75788174,0,1,0,0)"
         inkscape:transform-center-x="-67.506539"
         inkscape:transform-center-y="-59.172576"
         sodipodi:type="rect"
         d="m -562.30596,629.64802 c 6.34898,5.91977 13.55545,10.53273 21.64353,13.86418 9.62364,3.96395 18.68944,12.01067 24.48918,21.98909 5.82451,10.02106 8.40071,21.91522 5.0188,35.07487 -6.62478,25.77836 -13.50905,46.41102 -18.63856,62.0917 -2.51095,7.67586 -11.58458,17.79133 -25.54591,30.70621 -12.96546,11.99365 -32.82921,28.70014 -47.56125,37.25459 -12.89889,7.49 -23.75105,11.99079 -32.55309,13.22286 -10.72138,1.50073 -13.47114,-8.33498 -10.41389,-26.55375 2.93666,-17.50019 11.28772,-42.19671 19.71032,-61.81671 16.28188,-37.92775 28.56781,-73.56444 35.48347,-105.29017 3.64105,-16.70338 6.4025,-24.6796 10.61687,-27.32575 4.01445,-2.52063 10.22716,-0.23187 17.75053,6.78288 z" />
      <path
         style="fill:#c68e17;fill-opacity:1;stroke:#4d3709;stroke-width:9.77678;stroke-linecap:round;stroke-linejoin:round;stroke-opacity:1;paint-order:markers fill stroke"
         id="rect3"
         width="275.0556"
         height="174.8194"
         x="-443.11304"
         y="-46.912876"
         ry="48.970413"
         transform="matrix(-0.95809752,-0.28644222,-0.72446709,0.68930939,0,0)"
         inkscape:transform-center-x="-50.286867"
         inkscape:transform-center-y="-63.227477"
         sodipodi:type="rect"
         d="m -417.60398,51.987272 c 25.62504,2.079178 76.40268,-4.563411 120.07457,0.987511 10.10433,1.284312 19.13768,7.115794 26.12198,14.689755 6.85375,7.432382 11.88166,16.672445 13.34873,25.10235 2.84787,16.364052 7.1513,30.178412 14.41706,39.383792 3.80263,4.81776 3.16126,10.28381 -2.67609,17.42859 -5.57032,6.81792 -16.15698,15.03589 -28.7559,19.56948 -47.49924,17.09209 -106.44046,12.03058 -149.85643,11.48974 -11.1842,-0.13933 -21.8884,-3.97755 -29.09554,-10.01996 -7.35782,-6.16875 -10.97023,-14.44516 -9.87887,-24.29963 2.03623,-18.38625 6.58442,-37.7703 14.26512,-58.622875 3.97662,-10.79625 10.58607,-21.04943 15.73108,-26.925499 5.46189,-6.237971 10.41661,-9.260972 16.30429,-8.783254 z" />
    </g>
  </g>
  <g
     inkscape:groupmode="layer"
     id="layer2"
     inkscape:label="圖層 2"
     style="opacity:1;mix-blend-mode:color-dodge">
    <text
       xml:space="preserve"
       style="font-size:106.667px;font-family:'Comic Sans MS';-inkscape-font-specification:'Comic Sans MS';white-space:pre;inline-size:440.847;display:inline;fill:#f5ff1e;fill-opacity:1;stroke:#4d3709;stroke-width:3.7486498;stroke-linecap:round;stroke-linejoin:round;stroke-opacity:1;paint-order:markers fill stroke;stroke-dasharray:none"
       x="34.734337"
       y="265.40594"
       id="text8"
       transform="matrix(1.1532123,0,0,1.5426983,-4.8789378,-69.289911)"><tspan
         x="34.734337"
         y="265.40594"
         id="tspan1">caramel</tspan></text>
  </g>
</svg>
