<?xml version="1.0" encoding="UTF-8" standalone="no"?>
<!-- Created with Inkscape (http://www.inkscape.org/) -->

<svg
   width="512"
   height="512"
   viewBox="0 0 512 512"
   version="1.1"
   id="svg1"
   inkscape:version="1.3.2 (091e20e, 2023-11-25, custom)"
   xmlns:inkscape="http://www.inkscape.org/namespaces/inkscape"
   xmlns:sodipodi="http://sodipodi.sourceforge.net/DTD/sodipodi-0.dtd"
   xmlns="http://www.w3.org/2000/svg"
   xmlns:svg="http://www.w3.org/2000/svg">
  <sodipodi:namedview
     id="namedview1"
     pagecolor="#ffffff"
     bordercolor="#111111"
     borderopacity="1"
     inkscape:showpageshadow="0"
     inkscape:pageopacity="0"
     inkscape:pagecheckerboard="1"
     inkscape:deskcolor="#d1d1d1"
     inkscape:document-units="px" />
  <defs
     id="defs1">
    <inkscape:path-effect
       effect="skeletal"
       id="path-effect32"
       is_visible="true"
       lpeversion="1"
       pattern="M 0,18.867925 C 0,8.4528302 8.4528302,0 18.867925,0 c 10.415094,0 18.867924,8.4528302 18.867924,18.867925 0,10.415094 -8.45283,18.867924 -18.867924,18.867924 C 8.4528302,37.735849 0,29.283019 0,18.867925 Z"
       copytype="single_stretched"
       prop_scale="1"
       scale_y_rel="false"
       spacing="0"
       normal_offset="0"
       tang_offset="0"
       prop_units="false"
       vertical_pattern="false"
       hide_knot="false"
       fuse_tolerance="0" />
    <inkscape:path-effect
       effect="spiro"
       id="path-effect31"
       is_visible="true"
       lpeversion="1" />
    <inkscape:path-effect
       effect="skeletal"
       id="path-effect30"
       is_visible="true"
       lpeversion="1"
       pattern="M 0,18.867925 C 0,8.4528302 8.4528302,0 18.867925,0 c 10.415094,0 18.867924,8.4528302 18.867924,18.867925 0,10.415094 -8.45283,18.867924 -18.867924,18.867924 C 8.4528302,37.735849 0,29.283019 0,18.867925 Z"
       copytype="single_stretched"
       prop_scale="1"
       scale_y_rel="false"
       spacing="0"
       normal_offset="0"
       tang_offset="0"
       prop_units="false"
       vertical_pattern="false"
       hide_knot="false"
       fuse_tolerance="0" />
    <inkscape:path-effect
       effect="spiro"
       id="path-effect29"
       is_visible="true"
       lpeversion="1" />
    <inkscape:path-effect
       effect="skeletal"
       id="path-effect28"
       is_visible="true"
       lpeversion="1"
       pattern="M 0,18.867925 C 0,8.4528302 8.4528302,0 18.867925,0 c 10.415094,0 18.867924,8.4528302 18.867924,18.867925 0,10.415094 -8.45283,18.867924 -18.867924,18.867924 C 8.4528302,37.735849 0,29.283019 0,18.867925 Z"
       copytype="single_stretched"
       prop_scale="1"
       scale_y_rel="false"
       spacing="0"
       normal_offset="0"
       tang_offset="0"
       prop_units="false"
       vertical_pattern="false"
       hide_knot="false"
       fuse_tolerance="0" />
    <inkscape:path-effect
       effect="spiro"
       id="path-effect27"
       is_visible="true"
       lpeversion="1" />
    <inkscape:path-effect
       effect="skeletal"
       id="path-effect26"
       is_visible="true"
       lpeversion="1"
       pattern="M 0,18.867925 C 0,8.4528302 8.4528302,0 18.867925,0 c 10.415094,0 18.867924,8.4528302 18.867924,18.867925 0,10.415094 -8.45283,18.867924 -18.867924,18.867924 C 8.4528302,37.735849 0,29.283019 0,18.867925 Z"
       copytype="single_stretched"
       prop_scale="1"
       scale_y_rel="false"
       spacing="0"
       normal_offset="0"
       tang_offset="0"
       prop_units="false"
       vertical_pattern="false"
       hide_knot="false"
       fuse_tolerance="0" />
    <inkscape:path-effect
       effect="spiro"
       id="path-effect25"
       is_visible="true"
       lpeversion="1" />
    <inkscape:path-effect
       effect="skeletal"
       id="path-effect24"
       is_visible="true"
       lpeversion="1"
       pattern="M 0,18.867925 C 0,8.4528302 8.4528302,0 18.867925,0 c 10.415094,0 18.867924,8.4528302 18.867924,18.867925 0,10.415094 -8.45283,18.867924 -18.867924,18.867924 C 8.4528302,37.735849 0,29.283019 0,18.867925 Z"
       copytype="single_stretched"
       prop_scale="1"
       scale_y_rel="false"
       spacing="0"
       normal_offset="0"
       tang_offset="0"
       prop_units="false"
       vertical_pattern="false"
       hide_knot="false"
       fuse_tolerance="0" />
    <inkscape:path-effect
       effect="spiro"
       id="path-effect23"
       is_visible="true"
       lpeversion="1" />
    <inkscape:path-effect
       effect="skeletal"
       id="path-effect22"
       is_visible="true"
       lpeversion="1"
       pattern="M 0,18.867925 C 0,8.4528302 8.4528302,0 18.867925,0 c 10.415094,0 18.867924,8.4528302 18.867924,18.867925 0,10.415094 -8.45283,18.867924 -18.867924,18.867924 C 8.4528302,37.735849 0,29.283019 0,18.867925 Z"
       copytype="single_stretched"
       prop_scale="1"
       scale_y_rel="false"
       spacing="0"
       normal_offset="0"
       tang_offset="0"
       prop_units="false"
       vertical_pattern="false"
       hide_knot="false"
       fuse_tolerance="0" />
    <inkscape:path-effect
       effect="spiro"
       id="path-effect21"
       is_visible="true"
       lpeversion="1" />
    <inkscape:path-effect
       effect="skeletal"
       id="path-effect20"
       is_visible="true"
       lpeversion="1"
       pattern="M 0,18.867925 C 0,8.4528302 8.4528302,0 18.867925,0 c 10.415094,0 18.867924,8.4528302 18.867924,18.867925 0,10.415094 -8.45283,18.867924 -18.867924,18.867924 C 8.4528302,37.735849 0,29.283019 0,18.867925 Z"
       copytype="single_stretched"
       prop_scale="1"
       scale_y_rel="false"
       spacing="0"
       normal_offset="0"
       tang_offset="0"
       prop_units="false"
       vertical_pattern="false"
       hide_knot="false"
       fuse_tolerance="0" />
    <inkscape:path-effect
       effect="spiro"
       id="path-effect19"
       is_visible="true"
       lpeversion="1" />
  </defs>
  <g
     inkscape:label="圖層 1"
     inkscape:groupmode="layer"
     id="layer1">
    <g
       id="g16"
       transform="matrix(0.76691432,-0.54764176,0.19071366,0.32241269,479.98406,-144.49048)"
       style="stroke-width:1.6862">
      <path
         style="fill:#fab527;fill-opacity:1;stroke:#cd8800;stroke-width:9.13109;stroke-linecap:round;stroke-linejoin:round;stroke-opacity:1;paint-order:markers fill stroke"
         id="path1"
         sodipodi:type="arc"
         sodipodi:cx="77.543739"
         sodipodi:cy="397.47168"
         sodipodi:rx="188.61501"
         sodipodi:ry="188.61501"
         sodipodi:start="0"
         sodipodi:end="3.1415927"
         sodipodi:arc-type="arc"
         d="m 266.15874,397.47168 a 188.61501,188.61501 0 0 1 -94.3075,163.34539 188.61501,188.61501 0 0 1 -188.615008,-10e-6 188.61501,188.61501 0 0 1 -94.307502,-163.34538"
         sodipodi:open="true"
         transform="matrix(1.1585871,-0.08746608,0.13444851,2.9332355,-551.5511,-566.47931)" />
      <circle
         style="fill:#fab527;fill-opacity:1;stroke:#cd8800;stroke-width:16.862;stroke-linecap:round;stroke-linejoin:round;stroke-opacity:1;paint-order:markers fill stroke"
         id="path3"
         cx="-408.79645"
         cy="579.79626"
         r="214.6404" />
      <path
         style="display:inline;fill:#ffd800;fill-opacity:1;stroke:#feffc7;stroke-width:16.862;stroke-linecap:round;stroke-linejoin:round;stroke-opacity:1;paint-order:markers fill stroke"
         id="circle3"
         sodipodi:type="arc"
         sodipodi:cx="-408.79639"
         sodipodi:cy="579.79626"
         sodipodi:rx="191.45476"
         sodipodi:ry="191.45476"
         sodipodi:start="0"
         sodipodi:end="0.52359878"
         sodipodi:arc-type="slice"
         d="m -217.34163,579.79626 a 191.45476,191.45476 0 0 1 -25.65007,95.72738 l -165.80469,-95.72738 z"
         inkscape:transform-center-x="-95.404141"
         inkscape:transform-center-y="47.886958" />
      <path
         style="display:inline;fill:#ffd800;fill-opacity:1;stroke:#feffc7;stroke-width:16.862;stroke-linecap:round;stroke-linejoin:round;stroke-opacity:1;paint-order:markers fill stroke"
         id="path6"
         sodipodi:type="arc"
         sodipodi:cx="-64.18486"
         sodipodi:cy="706.35797"
         sodipodi:rx="191.45476"
         sodipodi:ry="191.45476"
         sodipodi:start="0"
         sodipodi:end="0.52359878"
         sodipodi:arc-type="slice"
         d="m 127.2699,706.35797 a 191.45476,191.45476 0 0 1 -25.65008,95.72738 L -64.18486,706.35797 Z"
         inkscape:transform-center-x="-82.610786"
         inkscape:transform-center-y="82.760863"
         transform="rotate(30)" />
      <path
         style="display:inline;fill:#ffd800;fill-opacity:1;stroke:#feffc7;stroke-width:16.862;stroke-linecap:round;stroke-linejoin:round;stroke-opacity:1;paint-order:markers fill stroke"
         id="path7"
         sodipodi:type="arc"
         sodipodi:cx="297.53833"
         sodipodi:cy="643.6579"
         sodipodi:rx="191.45476"
         sodipodi:ry="191.45476"
         sodipodi:start="0"
         sodipodi:end="0.52359878"
         sodipodi:arc-type="slice"
         d="m 488.99309,643.6579 a 191.45476,191.45476 0 0 1 -25.65008,95.72738 L 297.53833,643.6579 Z"
         inkscape:transform-center-x="-47.681912"
         inkscape:transform-center-y="95.459084"
         transform="rotate(60)" />
      <path
         style="display:inline;fill:#ffd800;fill-opacity:1;stroke:#feffc7;stroke-width:16.862;stroke-linecap:round;stroke-linejoin:round;stroke-opacity:1;paint-order:markers fill stroke"
         id="path8"
         sodipodi:type="arc"
         sodipodi:cx="579.44977"
         sodipodi:cy="408.49643"
         sodipodi:rx="191.45476"
         sodipodi:ry="191.45476"
         sodipodi:start="0"
         sodipodi:end="0.52359878"
         sodipodi:arc-type="slice"
         d="m 770.90453,408.49643 a 191.45476,191.45476 0 0 1 -25.65008,95.72738 L 579.44977,408.49643 Z"
         inkscape:transform-center-x="47.88697"
         inkscape:transform-center-y="95.404151"
         transform="rotate(90)" />
      <path
         style="display:inline;fill:#ffd800;fill-opacity:1;stroke:#feffc7;stroke-width:16.862;stroke-linecap:round;stroke-linejoin:round;stroke-opacity:1;paint-order:markers fill stroke"
         id="path9"
         sodipodi:type="arc"
         sodipodi:cx="706.01147"
         sodipodi:cy="63.884907"
         sodipodi:rx="191.45476"
         sodipodi:ry="191.45476"
         sodipodi:start="0"
         sodipodi:end="0.52359878"
         sodipodi:arc-type="slice"
         d="M 897.46623,63.884907 A 191.45476,191.45476 0 0 1 871.81616,159.61229 L 706.01147,63.884907 Z"
         inkscape:transform-center-x="82.760882"
         inkscape:transform-center-y="82.610765"
         transform="rotate(120)" />
      <path
         style="display:inline;fill:#ffd800;fill-opacity:1;stroke:#feffc7;stroke-width:16.862;stroke-linecap:round;stroke-linejoin:round;stroke-opacity:1;paint-order:markers fill stroke"
         id="path10"
         sodipodi:type="arc"
         sodipodi:cx="643.3114"
         sodipodi:cy="-297.83829"
         sodipodi:rx="191.45476"
         sodipodi:ry="191.45476"
         sodipodi:start="0"
         sodipodi:end="0.52359878"
         sodipodi:arc-type="slice"
         d="m 834.76616,-297.83829 a 191.45476,191.45476 0 0 1 -25.65008,95.72738 L 643.3114,-297.83829 Z"
         inkscape:transform-center-x="95.459102"
         inkscape:transform-center-y="47.681917"
         transform="rotate(150)" />
      <path
         style="display:inline;fill:#ffd800;fill-opacity:1;stroke:#feffc7;stroke-width:16.862;stroke-linecap:round;stroke-linejoin:round;stroke-opacity:1;paint-order:markers fill stroke"
         id="path11"
         sodipodi:type="arc"
         sodipodi:cx="408.14993"
         sodipodi:cy="-579.74969"
         sodipodi:rx="191.45476"
         sodipodi:ry="191.45476"
         sodipodi:start="0"
         sodipodi:end="0.52359878"
         sodipodi:arc-type="slice"
         d="m 599.60469,-579.74969 a 191.45476,191.45476 0 0 1 -25.65007,95.72737 l -165.80469,-95.72737 z"
         inkscape:transform-center-x="95.404162"
         inkscape:transform-center-y="-47.886991"
         transform="scale(-1)" />
      <path
         style="display:inline;fill:#ffd800;fill-opacity:1;stroke:#feffc7;stroke-width:16.862;stroke-linecap:round;stroke-linejoin:round;stroke-opacity:1;paint-order:markers fill stroke"
         id="path12"
         sodipodi:type="arc"
         sodipodi:cx="63.53841"
         sodipodi:cy="-706.3114"
         sodipodi:rx="191.45476"
         sodipodi:ry="191.45476"
         sodipodi:start="0"
         sodipodi:end="0.52359878"
         sodipodi:arc-type="slice"
         d="m 254.99317,-706.3114 a 191.45476,191.45476 0 0 1 -25.65008,95.72738 L 63.53841,-706.3114 Z"
         inkscape:transform-center-x="82.61077"
         inkscape:transform-center-y="-82.760927"
         transform="rotate(-150)" />
      <path
         style="display:inline;fill:#ffd800;fill-opacity:1;stroke:#feffc7;stroke-width:16.862;stroke-linecap:round;stroke-linejoin:round;stroke-opacity:1;paint-order:markers fill stroke"
         id="path13"
         sodipodi:type="arc"
         sodipodi:cx="-298.18478"
         sodipodi:cy="-643.61133"
         sodipodi:rx="191.45476"
         sodipodi:ry="191.45476"
         sodipodi:start="0"
         sodipodi:end="0.52359878"
         sodipodi:arc-type="slice"
         d="m -106.73003,-643.61133 a 191.45476,191.45476 0 0 1 -25.65007,95.72738 l -165.80468,-95.72738 z"
         inkscape:transform-center-x="47.681907"
         inkscape:transform-center-y="-95.459113"
         transform="rotate(-120)" />
      <path
         style="display:inline;fill:#ffd800;fill-opacity:1;stroke:#feffc7;stroke-width:16.862;stroke-linecap:round;stroke-linejoin:round;stroke-opacity:1;paint-order:markers fill stroke"
         id="path14"
         sodipodi:type="arc"
         sodipodi:cx="-580.09619"
         sodipodi:cy="-408.44986"
         sodipodi:rx="191.45476"
         sodipodi:ry="191.45476"
         sodipodi:start="0"
         sodipodi:end="0.52359878"
         sodipodi:arc-type="slice"
         d="m -388.64143,-408.44986 a 191.45476,191.45476 0 0 1 -25.65008,95.72738 l -165.80468,-95.72738 z"
         inkscape:transform-center-x="-47.886981"
         inkscape:transform-center-y="-95.404184"
         transform="rotate(-90)" />
      <path
         style="display:inline;fill:#ffd800;fill-opacity:1;stroke:#feffc7;stroke-width:16.862;stroke-linecap:round;stroke-linejoin:round;stroke-opacity:1;paint-order:markers fill stroke"
         id="path15"
         sodipodi:type="arc"
         sodipodi:cx="-706.6579"
         sodipodi:cy="-63.838337"
         sodipodi:rx="191.45476"
         sodipodi:ry="191.45476"
         sodipodi:start="0"
         sodipodi:end="0.52359878"
         sodipodi:arc-type="slice"
         d="m -515.20314,-63.838337 a 191.45476,191.45476 0 0 1 -25.65007,95.72738 l -165.80469,-95.72738 z"
         inkscape:transform-center-x="-82.760922"
         inkscape:transform-center-y="-82.610816"
         transform="rotate(-60)" />
      <path
         style="display:inline;fill:#ffd800;fill-opacity:1;stroke:#feffc7;stroke-width:16.862;stroke-linecap:round;stroke-linejoin:round;stroke-opacity:1;paint-order:markers fill stroke"
         id="path16"
         sodipodi:type="arc"
         sodipodi:cx="-643.95782"
         sodipodi:cy="297.88486"
         sodipodi:rx="191.45476"
         sodipodi:ry="191.45476"
         sodipodi:start="0"
         sodipodi:end="0.52359878"
         sodipodi:arc-type="slice"
         d="m -452.50307,297.88486 a 191.45476,191.45476 0 0 1 -25.65007,95.72738 l -165.80468,-95.72738 z"
         inkscape:transform-center-x="-95.459123"
         inkscape:transform-center-y="-47.68192"
         transform="rotate(-30)" />
    </g>
    <g
       id="g18"
       transform="matrix(1.693495,-1.111632,1.0940301,1.6635462,-169.37691,2.9022586)"
       style="stroke-width:0.497927">
      <path
         style="fill:#b03d1f;fill-opacity:1;stroke:#cccb79;stroke-width:2.48964;stroke-linecap:round;stroke-linejoin:round;stroke-dasharray:none;stroke-opacity:1;paint-order:markers fill stroke"
         d="M 90.686346,211.60148 C 37.156212,188.61501 31.173432,113.04305 68.95941,72.738007 73.052891,87.852398 72.423124,91.630996 71.793358,98.558429 81.869619,85.9631 88.482165,79.03567 95.094711,73.367773 85.333334,105.48586 86.592865,196.80197 90.686346,211.60148 Z"
         id="path18"
         sodipodi:nodetypes="ccccc" />
      <path
         style="fill:#fafa74;fill-opacity:1;stroke:#cccb79;stroke-width:2.48964;stroke-linecap:round;stroke-linejoin:round;stroke-dasharray:none;stroke-opacity:1;paint-order:markers fill stroke"
         d="M 88.167282,91.316113 C 48.177122,123.11932 43.138992,171.9262 90.686347,211.60148 124.69373,188.30012 107.06027,159.33087 96.66913,148.62485 107.37515,138.54858 109.57934,98.873309 88.167282,91.316113 Z"
         id="path17"
         sodipodi:nodetypes="cccc" />
    </g>
  </g>
  <g
     inkscape:groupmode="layer"
     id="layer2"
     inkscape:label="圖層 2"
     style="mix-blend-mode:multiply;stroke-width:1.09871"
     transform="matrix(0.8501742,0,0,0.97437191,54.346298,11.111555)">
    <path
       style="fill:#b0801f;fill-opacity:1;stroke:none;stroke-width:5.49356;stroke-linecap:round;stroke-linejoin:round;stroke-dasharray:none;stroke-opacity:1;paint-order:markers fill stroke"
       d="m 15.140609,68.578051 c 0.241313,-4.070651 9.114678,-8.560114 25.228853,-7.662532 0,10e-7 5e-6,10e-7 5e-6,10e-7 8.161246,0.455462 17.217008,2.467785 25.186613,2.858171 3.142106,0.159172 8.081551,0.380147 14.417178,1.88128 5.722007,1.325863 8.65797,2.822685 8.302178,2.009288 -0.188986,-0.0214 0.640464,-0.252235 2.65465,-0.364193 10.023604,-0.832865 19.678494,-0.68137 29.434354,-0.263278 4.75339,0.203709 9.28355,0.45579 13.59386,0.65188 20.06035,0.920576 34.07596,0.757084 51.20801,2.955789 5.41367,0.636667 9.33714,1.52397 12.51932,1.835663 4.3025,0.317752 6.83517,0.633236 9.62573,0.08558 0.57584,-0.09878 1.74522,-0.678347 3.15434,-1.311257 1.63512,-0.846611 3.86747,-1.253418 6.16059,-1.226401 2.83094,0.28038 2.95964,1.035794 2.55445,1.470095 -0.42707,0.563381 -0.29212,1.190584 -0.0218,1.59848 0,0 0,1e-6 0,1e-6 0.69689,1.044494 2.42742,0.656513 3.49706,0.825148 0.85873,0.135385 2.9686,1.288874 1.69435,4.366254 0,0 0,4e-6 0,4e-6 -0.50072,1.190386 -1.59441,2.591516 -3.56283,3.401173 -1.95617,0.678839 -3.63527,0.982327 -2.78929,1.470095 0.67102,0.194609 1.26292,0.519637 1.33613,0.772784 0.0713,0.299984 -0.0998,0.956429 -0.92744,2.033298 -3.64531,4.615918 -9.47794,8.935871 -16.75088,11.065148 -5.70193,1.783677 -11.02485,2.595679 -16.32277,3.324838 -12.97558,1.93819 -32.66975,4.66309 -52.10437,4.73704 -4.90277,0.0169 -9.70355,-0.12574 -14.48996,-0.33311 -10.12112,-0.4385 -17.86611,-1.02067 -26.200494,-1.05954 -1.611322,0.0482 -4.312784,0.0305 -8.032838,-0.36419 -8.561027,-1.67312 -13.181359,-4.121518 -14.85404,-5.115704 -1.891612,-1.091669 -5.91916,-2.006092 -10.520302,-3.462469 -10.53695,-3.348036 -19.633187,-8.5984 -24.688333,-11.391812 0,0 -5e-6,-2e-6 -5e-6,-2e-6 C 22.9824,77.028027 14.88159,72.947387 15.140609,68.578051 Z"
       id="path19"
       inkscape:path-effect="#path-effect19;#path-effect20"
       inkscape:original-d="m 15.140609,68.578051 c 7.12178,2.938611 14.897517,2.159052 22.265601,3.562496 8.40824,1.60157 16.672236,4.968844 24.937473,7.124992 4.112952,1.072945 8.358091,1.590124 12.468736,2.671873 4.196371,1.104308 7.167879,3.011217 11.578113,3.562496 1.767493,0.220936 3.586732,-0.292836 5.343744,0 13.476444,2.246074 28.086984,0.890624 41.859334,0.890624 17.12328,0 34.66473,0.997316 51.65619,-0.890624 7.75562,-0.861735 19.87436,-3.656039 27.60935,-6.234369 1.81682,-0.605609 2.92522,-1.907924 4.45312,-2.671872 0.79659,-0.398299 1.82695,0.28164 2.67187,0 0.71359,-0.237864 4.85112,-2.671872 2.67187,-2.671872" />
    <path
       style="fill:#b0801f;fill-opacity:1;stroke:none;stroke-width:5.49356;stroke-linecap:round;stroke-linejoin:round;stroke-dasharray:none;stroke-opacity:1;paint-order:markers fill stroke"
       d="m 127.35924,85.499908 c 3.4534,-0.516012 10.39725,12.687443 9.46391,37.929692 -0.19011,5.54344 -0.97252,13.09312 -0.60289,17.89524 0.17208,3.1533 0.77962,7.02299 1.07659,11.9715 0.63518,11.55134 -0.76427,23.16693 -0.47795,33.44095 0.12947,6.65734 0.82202,14.09516 1.17553,22.55935 0.51915,11.59867 0.97624,23.80134 1.36471,36.5156 0.29096,9.52281 0.54342,19.33262 0.75462,29.39059 0.033,1.92453 0.0214,3.80052 -0.0208,5.62904 0.0523,1.66107 -0.0476,2.1809 0.013,1.47594 0,0 0,-1e-5 0,-1e-5 -0.55837,-1.35299 0.99084,1.00008 2.64025,7.84393 0.98702,5.81269 0.99537,10.13047 0.71106,12.7866 -0.0962,2.39816 -0.1469,4.73651 -0.11561,6.99884 0.1407,13.0593 0.21364,26.42999 0.21364,40.03887 0,1.2e-4 -1.1e-4,0.9297 -1.1e-4,0.92983 -0.004,3.96876 -0.16953,7.82225 -0.43684,11.54625 0,0 0,2e-5 0,2e-5 0.0157,3.4765 -0.42771,4.94482 -0.21882,4.24571 -2e-4,-0.28654 0.60436,1.75798 1.34845,6.18699 0.32278,5.44149 0.0131,7.04011 -0.007,4.70173 -0.84185,-2.72488 -0.4491,-2.92522 0.45803,0.15505 5.12101,14.96478 4.0326,28.82378 0.31256,39.53901 0,0 0,3e-5 0,3e-5 -1.07432,3.62082 -2.12635,6.56246 -2.86722,8.95407 -0.74765,2.60184 -1.82085,6.50984 -3.92878,11.49679 -1.99112,5.30626 -6.29192,10.73067 -12.92949,15.38061 -1.61083,0.98119 -2.20824,1.25398 -1.80932,1.00476 0,0 10e-6,-1e-5 10e-6,-1e-5 0.56138,-0.13744 1.65258,-1.35947 3.40671,-3.5759 0,0 5e-5,-6e-5 5e-5,-6e-5 1.15504,-2.21191 1.20246,-2.03695 -0.13715,0.41191 -2.37852,4.04261 -5.25368,6.98033 -8.44224,8.80686 -3.1356,1.81735 -6.02965,2.90794 -8.59513,3.35762 -3.17992,0.68659 -4.63649,0.64026 -2.53712,0.19944 0.6167,-0.19524 1.17021,-0.47804 1.68187,-0.85509 -5.63876,3.15842 -11.725168,5.04566 -17.899329,5.68806 -4.346001,0.33232 -8.092305,0.14619 -11.211093,-0.25729 -13.753684,-1.69359 -25.911963,-5.68734 -35.836952,-9.30631 -3.027539,-0.76479 -7.555128,-2.74631 -12.746056,-6.61427 -2.306099,-2.08302 -3.531464,-3.535 -3.971455,-4.15468 -0.590935,-0.45737 -0.109296,-0.44734 1.149519,0.26151 0.995167,0.22575 0.818776,0.22305 -0.393455,-0.21038 -1.311259,-0.22436 -3.576414,-1.13977 -6.593533,-2.88838 0,0 -4.2e-5,-4e-5 -4.2e-5,-4e-5 -3.718271,-2.96954 -5.240252,-4.79829 -5.193007,-5.15437 -0.05045,-0.42074 -1.360042,-1.54028 -3.299233,-3.55636 -2.276819,-1.95243 -4.6226838,-5.36517 -6.4468887,-10.09288 -0.9893453,-3.82309 -1.0434459,-5.78431 -0.9292008,-6.05963 0.3992889,0.10552 0.7243941,0.1175 0.9682835,0.13 -2.9299277,-3.08763 -4.5863172,-6.85631 -5.0959422,-10.77927 -0.62281321,-4.43884 -0.2925727,-7.72257 0.1412203,-9.91476 0.2552394,-2.40704 0.725619,-3.76272 0.7115841,-4.39191 0.161616,-0.49067 -0.3049756,-1.8404 -0.8241968,-3.75385 -2.9514376,-10.53568 -0.1610132,-18.62289 2.5812379,-23.08286 2.7815067,-4.52381 5.5957283,-5.61379 6.7221107,-4.94939 1.254068,0.73973 1.147913,3.37448 1.399799,7.3478 0.251886,3.97333 0.979353,9.68601 4.341047,14.49491 0.62484,0.88461 1.68258,2.49716 2.738298,5.15239 1.239811,3.80108 1.656422,7.19244 1.743831,9.84234 0.284102,2.34334 0.376191,4.01669 0.890222,4.35097 0.57879,0.62899 1.355839,1.29694 2.029051,1.68945 1.902963,2.69432 3.451309,5.72584 4.53078,9.03624 0.734532,2.65878 0.817429,3.74554 0.852047,2.84661 -0.495681,-0.96999 -0.140317,-1.28342 0.643047,-0.43232 0.954423,0.63832 2.956557,2.00206 5.642063,4.59556 1.757485,1.52392 1.685076,1.75985 0.150713,0.18937 0,0 -1.8e-5,-2e-5 -1.8e-5,-2e-5 -1.426876,-0.73901 -1.87272,-1.13311 -1.326613,-0.90534 0.610291,0.01 2.289077,0.38088 5.027113,1.36908 3.768255,1.80983 6.342118,3.65232 7.718945,5.18016 1.476853,1.31405 2.071356,1.9601 1.927857,1.61415 -0.664107,-0.23654 0.538754,-0.43016 3.285171,0.51073 9.982357,2.26765 20.657676,4.7838 30.069233,4.94367 2.148281,0.0165 3.804584,0.0209 4.820139,-0.25729 1.237691,-0.20221 2.498217,-0.71856 3.475651,-1.43694 1.613457,-1.11903 3.367329,-2.00287 5.244364,-2.63633 4.647108,-1.36815 6.874788,-1.67821 6.369118,-1.58182 -0.41668,-0.0236 -1.19847,0.30912 -2.456463,0.94973 -1.324081,0.65799 -2.566424,1.99756 -3.893431,4.08977 -0.716528,1.29266 -0.237718,0.1616 1.644115,-3.15059 0,0 6.7e-5,-9e-5 6.7e-5,-9e-5 2.577932,-3.46414 4.855062,-5.65674 6.674982,-6.61372 0,0 5e-5,-3e-5 5e-5,-3e-5 1.66348,-1.07251 2.37983,-1.4685 2.04735,-1.30111 -1.14936,1.14551 -1.63647,0.99188 -0.98299,0.21617 0.47603,-0.98206 0.87484,-3.4263 1.9372,-7.18249 0.94416,-3.52757 1.87414,-6.46546 2.47651,-8.85837 0,0 1e-5,-10e-6 1e-5,-10e-6 1.19523,-6.90872 2.31234,-13.00252 0.31256,-15.67969 -0.53308,-0.51272 -1.86232,-3.93496 -3.10447,-10.53243 -0.30741,-5.26684 -0.003,-6.7068 -0.007,-4.20451 0.4891,2.05777 0.16631,1.66654 -0.43279,-0.93801 -1.49315,-7.307 -1.45767,-12.79552 -0.97227,-16.19606 0,0 0,-2e-5 0,-2e-5 0.19627,-3.07278 0.32101,-6.07303 0.31661,-8.98064 0,1.3e-4 -1.1e-4,-0.92996 -1.1e-4,-0.92983 0,-13.60888 0.0729,-26.97957 0.21364,-40.03887 0.0313,-3.11576 0.16501,-6.1368 0.36365,-9.05439 0.0146,-2.72655 0.33,-3.81373 0.2318,-3.22265 0.37736,0.72491 -1.23762,-2.5167 -2.70351,-9.96855 0,0 0,-5e-5 0,-5e-5 -0.42216,-3.94816 -0.38025,-6.72347 -0.19811,-8.31391 0.089,-1.45215 0.15726,-2.84171 0.1903,-4.17479 0.2112,-10.05797 0.46366,-19.86778 0.75462,-29.39059 0.38847,-12.71426 0.84556,-24.91693 1.36471,-36.5156 0.37381,-8.00753 0.41021,-15.16656 1.17553,-23.75308 1.01707,-11.0215 3.84874,-21.44373 4.8658,-32.46524 0.37191,-3.71932 0.48704,-8.17712 1.0766,-12.96596 1.07129,-7.75861 3.40212,-14.87769 4.74085,-19.51098 5.94919,-20.818905 6.01051,-34.585459 9.46391,-35.101472 z"
       id="path20"
       inkscape:path-effect="#path-effect21;#path-effect22"
       inkscape:original-d="m 127.35924,85.499908 c -0.39686,12.151998 0.60707,24.374092 0,36.515582 -1.5352,30.70404 -0.007,-14.60473 -2.67187,18.70311 -0.33145,4.14301 0.18053,8.31641 0,12.46873 -0.47614,10.95106 -1.67988,22.04112 -2.67188,32.95309 -0.68662,7.55282 0,15.57929 0,23.15623 0,12.17186 0,24.34372 0,36.51558 0,9.79687 0,19.59373 0,29.3906 0,3.26562 -0.46183,6.56406 0,9.79686 0.43833,3.06831 2.18848,5.84471 2.67188,8.90624 0.83342,5.27836 0,10.68749 0,16.03124 0,13.65623 0,27.31247 0,40.9687 0,6.58966 -0.59985,13.88601 0,20.48435 0.11082,1.21902 0.75545,2.34594 0.89062,3.5625 0.16392,1.4753 -0.26553,2.99269 0,4.45312 0.33587,1.84732 1.41302,3.50261 1.78125,5.34374 0.74724,3.73622 0.43755,23.23384 0,27.60935 -0.19229,1.92287 -2.27328,7.71045 -2.67187,8.90624 -1.97649,5.92946 -4.94646,11.97213 -8.90624,16.92186 -6.40624,8.0078 2.25507,-3.1457 -3.5625,2.67187 -0.4694,0.4694 -0.42123,1.31185 -0.89063,1.78125 -1.51376,1.51377 -3.38746,2.69303 -5.34374,3.56249 -1.3833,0.6148 -2.99759,0.47476 -4.45312,0.89063 -0.63829,0.18237 -1.1875,0.59375 -1.781248,0.89062 -3.562496,1.1875 -7.02171,2.74788 -10.687488,3.5625 -2.608247,0.57961 -5.343744,0 -8.015616,0 -13.826056,0 -19.94455,-1.64771 -32.95309,-7.12499 -2.694748,-1.13464 -5.536174,-2.01285 -8.015616,-3.5625 -2.321013,-1.45063 -3.903338,-3.90926 -6.234369,-5.34374 -1.599073,-0.98405 -3.702426,-0.86941 -5.343744,-1.78125 -1.101029,-0.61169 -1.817556,-1.74637 -2.671872,-2.67188 -2.709078,-2.93483 -5.800121,-5.58299 -8.015616,-8.90624 -0.839689,-1.25953 -0.455646,-3.00319 -0.890624,-4.45312 -0.459389,-1.53129 -1.187499,-2.96874 -1.781248,-4.45312 -1.187499,-2.07812 -2.858608,-3.94673 -3.562496,-6.23436 -0.82783,-2.69045 -0.257069,-11.08221 -0.890625,-14.24999 -0.313534,-1.56767 -1.3420457,-2.91591 -1.7812476,-4.45312 -0.9737636,-3.40817 -0.071933,-23.08429 1.7812476,-24.93747" />
    <path
       style="fill:#b0801f;fill-opacity:1;stroke:none;stroke-width:5.49356;stroke-linecap:round;stroke-linejoin:round;stroke-dasharray:none;stroke-opacity:1;paint-order:markers fill stroke"
       d="m 243.14036,78.374915 c 0.96606,-2.256229 7.94924,-1.090451 17.07166,-4.239747 0.23475,-0.185759 1.28111,-0.235869 3.22845,-0.01969 0,0 5e-5,5e-6 5e-5,5e-6 1.40264,0.305731 2.63438,0.874213 3.65687,1.709805 0.99549,0.816667 1.77461,1.746549 2.31103,2.777782 0,0 2e-5,3.7e-5 2e-5,3.7e-5 0.97425,2.048963 1.34658,3.998202 1.06175,5.715234 -0.69438,3.115945 -1.50624,5.046669 -1.92347,5.528194 -0.96235,2.623379 -1.19303,5.881761 -0.54735,9.222214 0.53503,2.831192 1.9118,5.780172 3.94077,8.630832 0.55925,0.69356 1.5813,2.24578 2.7888,4.91101 2.0468,6.1577 2.34003,11.28535 1.94369,14.56572 -0.0107,2.75303 0.0595,5.52123 0.29747,8.19854 0.85044,11.71173 1.62005,24.53488 2.29629,38.29685 0.16485,4.29988 0.0373,8.53129 -0.30804,12.6835 -0.091,1.72921 -0.18345,2.81262 -0.0462,3.1753 0.24757,0.27628 0.0727,-0.17776 -0.31377,-1.63647 -0.33772,-0.98583 0.81937,0.79013 2.90236,6.08153 0,0 2e-5,7e-5 2e-5,7e-5 0.63391,2.51253 0.86511,3.76288 0.82915,3.68355 0,0 10e-6,-1e-5 10e-6,-1e-5 0.20754,-0.16632 -0.31775,-1.4715 -1.46878,-4.03092 -2.43388,-3.20804 -4.08166,-4.9464 -5.19438,-5.07634 -0.78125,-0.33375 -0.18434,-0.22453 1.948,0.66023 0,0 5e-5,2e-5 5e-5,2e-5 3.99286,1.90495 6.14409,3.2978 6.67866,3.64799 1.40647,0.71019 3.18906,1.10365 4.73829,1.01451 1.18651,0.12977 2.53958,-0.17773 3.454,-0.76949 5.48145,-3.92838 11.97908,-5.53398 18.85687,-4.50959 5.60966,0.78803 7.10139,1.5812 4.4839,0.96457 -1.44349,-0.33568 -3.65848,0.25951 -6.85602,1.67485 0,0 -7e-5,3e-5 -7e-5,3e-5 -1.55902,0.81392 -3.0324,2.09905 -4.46523,3.87228 0,0 -6e-5,7e-5 -6e-5,7e-5 -1.45153,1.80572 -2.42016,4.07461 -2.94462,6.86044 0,0 8e-5,-10e-5 8e-5,-10e-5 1.109,-1.43543 2.47456,-2.88007 4.09832,-4.31916 0,0 10e-5,-1e-4 10e-5,-1e-4 3.03712,-4.13807 6.18566,-8.1004 9.43301,-11.8778 2.66542,-0.91057 4.19078,-1.30504 4.50226,-1.3605 0,0 0,0 0,0 0.22914,-0.24404 -0.5878,0.1971 -2.58069,1.17319 0,0 -4e-5,2e-5 -4e-5,2e-5 -2.84019,2.36047 -4.31022,3.70404 -4.23291,4.46586 -0.12541,0.47252 0.0823,-0.61966 1.01233,-3.17152 3.69684,-9.068 8.18602,-15.23926 11.57997,-19.3506 2.67829,-4.3153 4.87117,-6.64282 4.35019,-7.28291 0.0416,-0.14667 0.21444,-2.23618 1.07297,-6.19231 0.0446,-0.15024 0.089,-0.29884 0.13347,-0.44581 1.99021,-6.58435 3.81618,-9.85302 4.02786,-10.39983 0.81311,-0.85679 0.4059,-4.02323 0.34052,-8.62756 -0.49933,-4.81791 -1.43837,-11.25685 -1.19852,-19.57351 0.004,-6.15335 1.06185,-8.57007 0.69616,-7.28317 0.21787,0.41591 -0.29172,-0.74696 -1.10611,-3.55635 -1.20003,-2.84201 -1.53881,-7.480647 -0.62168,-13.694325 0,0 3e-5,-7.7e-5 3e-5,-7.7e-5 1.7942,-5.73041 3.63304,-9.167189 5.02563,-10.486178 0.90106,-1.599445 1.00215,-1.187675 -0.0494,0.83428 -0.47079,1.109394 -0.64675,2.745298 -0.60321,4.944391 0.0358,2.304762 0.97728,4.752382 2.7871,7.470478 0,0 5e-5,7.6e-5 5e-5,7.6e-5 1.94237,2.850682 4.97721,4.719634 9.21407,5.78486 0,0 1.1e-4,2.8e-5 1.1e-4,2.8e-5 4.53976,1.005017 8.83746,-0.198867 13.20087,-3.581851 2.59766,-2.511845 4.15874,-4.966694 4.70418,-7.457093 0.45605,-2.501858 0.65291,-3.609118 0.4842,-3.370965 -0.0992,3.902633 -0.20491,7.762845 -0.31706,11.578112 -0.0451,1.186041 -0.0562,2.428953 -0.0484,3.720194 0.11027,1.46484 0.0609,4.11775 -0.43938,7.87596 -0.91571,4.16075 -2.63098,9.18749 -2.188,7.20394 -0.54841,-1.18345 0.28225,1.74444 -0.0356,7.97531 -0.23884,4.91615 -0.93353,8.49791 -1.37928,10.78505 -0.29043,3.56539 -0.94082,5.64325 -0.59667,6.00807 0.0869,0.077 0.69599,1.89447 1.49047,5.43446 0.3799,4.05476 0.24391,6.48663 -0.0671,7.34511 0.0798,0.87825 -0.1943,0.13014 -0.46894,-2.05218 -0.64237,-1.6155 -0.69501,-1.94058 -0.3903,-0.98333 0.58797,0.86979 1.37966,3.11442 2.15215,6.70048 0.29069,4.12966 0.14413,5.67307 0.0282,4.8622 -0.37,-1.40256 -0.20762,-1.28396 0.0136,0.31822 0.5975,1.56532 1.14799,4.66707 1.19904,9.15552 0,0 -10e-6,5e-5 -10e-6,5e-5 -0.2389,2.70526 -0.51637,3.8886 -0.56257,3.68446 0.30573,-0.28798 -0.17469,-1.82657 -1.12946,-4.68388 0,0 -3e-5,-4e-5 -3e-5,-4e-5 -1.96683,-2.59688 -2.28927,-3.31864 -1.50499,-2.08197 0.56721,0.48642 1.46923,1.456 2.64338,2.92615 0,0 4e-5,4e-5 4e-5,4e-5 1.25539,1.48675 2.29107,3.71953 3.04126,6.65012 0,0 2e-5,9e-5 2e-5,9e-5 0.42461,4.71226 0.23224,7.11137 -0.17331,7.31746 -0.006,0.54815 -0.0145,-0.78458 -0.009,-1.33273 0.0612,-1.04308 -0.35471,-2.50894 -1.19082,-4.42529 -1.27396,-1.98311 -2.05236,-3.00446 -2.45036,-3.07233 -0.24613,-0.17955 0.2917,0.28941 1.52021,1.45569 0,0 3e-5,4e-5 3e-5,4e-5 2.98344,3.55905 4.4033,6.43746 4.64272,8.4245 0.52897,1.87694 0.46283,2.45981 0.22558,1.88696 -1.15973,-0.85715 -0.20079,-0.20748 1.59834,2.27904 6.26266,7.22745 9.3483,15.66716 10.03326,23.42557 0.0675,0.63193 0.007,0.79128 -0.10053,0.51848 -0.0667,-0.31766 -0.49616,-0.93819 -1.19727,-1.88365 -1.01387,-0.92763 -1.47649,-1.30251 -1.55207,-1.13361 0.006,0.0815 0.63863,0.4783 1.75327,1.24483 2.37893,1.91098 3.73294,3.67555 4.40156,5.08538 0.79091,1.39828 1.078,2.29598 1.17327,2.61532 0.022,1.33973 2.03213,2.74845 3.80469,3.72071 1.93031,0.88197 5.14047,1.66628 7.4449,2.99239 4.33929,2.63876 4.00824,5.66583 3.36568,6.30271 -0.92193,0.91378 -3.10429,0.40631 -5.54058,0.95893 -1.34753,0.23232 -3.02688,1.09351 -6.8051,1.21115 -3.8024,0.23678 -9.07431,-0.73176 -14.0078,-5.18553 -1.36147,-1.37757 -2.30997,-2.52056 -2.90195,-3.06941 -0.64321,-0.4336 -0.79488,-0.52531 -0.42945,0.0826 0.21784,0.18737 -0.12791,0.13432 -1.07433,-0.32088 -1.00183,-0.35437 -2.38041,-1.34735 -4.06821,-3.13038 -1.28384,-1.68511 -2.09103,-3.19463 -2.4165,-4.43684 -0.36166,-1.17975 -0.5644,-1.95933 -0.66254,-2.27209 -1.33398,-3.74139 -4.08387,-7.5301 -7.77922,-10.41813 -1.38896,-0.77405 -4.1333,-3.19596 -7.3079,-8.40846 -1.18237,-2.64215 -1.72123,-4.28 -1.88267,-4.62476 -0.43401,-0.16757 0.0762,0.52023 1.40723,2.4675 0,0 1e-5,2e-5 1e-5,2e-5 0.62188,0.57491 0.47705,0.55371 -0.41784,-0.1806 -1.03792,-0.61537 -2.42432,-2.25498 -4.07479,-4.99852 -1.16905,-2.58876 -1.72253,-4.81321 -1.67569,-6.61149 -0.003,-1.7396 0.0811,-2.93906 0.2065,-3.57667 -0.15515,-1.26846 -0.002,-0.39213 0.0962,2.84136 0,0 2e-5,6e-5 2e-5,6e-5 0.54314,1.99279 1.10599,3.35872 1.76784,4.08074 0,0 2e-5,2e-5 2e-5,2e-5 0.58436,0.71027 0.78292,1.01848 0.62487,0.86193 -0.64746,-0.0325 -2.53543,-2.00517 -5.33802,-6.35453 0,0 -5e-5,-7e-5 -5e-5,-7e-5 -1.72723,-4.47727 -2.25857,-7.89676 -1.76671,-9.99431 0.13762,-1.9955 0.25719,-2.57499 0.0747,-1.69258 0,0 -10e-6,2e-5 -10e-6,2e-5 0.14037,1.45535 -0.17234,1.62913 -0.49263,0.23616 -0.67181,-1.28673 -1.45361,-4.08988 -1.85727,-8.5749 -0.13654,-2.62651 0.0208,-2.79845 0.0282,-0.48154 0.54693,2.1072 0.58351,2.68304 0.46448,2.21477 -0.41928,-0.46502 -1.23919,-2.22406 -2.26513,-5.40386 -0.77271,-4.22668 -0.8684,-7.04205 -0.57422,-8.2811 -0.0979,-1.20432 0.0192,-0.8837 0.0382,1.10529 0.46855,1.68201 0.28462,1.7995 -0.29077,0.0907 -2.73393,-7.93111 -3.19181,-15.108 -2.37791,-20.71065 0.25218,-3.52309 0.6184,-5.943 0.40196,-7.02744 -0.28016,-1.34272 -1.17094,-6.37927 -0.0356,-15.18092 1.05431,-4.77608 1.91792,-6.52183 1.3745,-5.26478 -0.0372,0.82008 -0.21884,0.51296 -0.23568,-1.02314 -0.11759,-1.662767 -0.20692,-3.394722 -0.25207,-5.193194 -0.11215,-3.815267 -0.2179,-7.675479 -0.31706,-11.578112 -0.16857,-0.732118 0.048,-2.823849 0.76658,-6.262552 0.8072,-3.424552 2.87127,-6.759159 6.20304,-9.90925 5.46113,-4.337383 11.32908,-5.897316 17.3015,-4.606137 0,0 1.5e-4,3.6e-5 1.5e-4,3.6e-5 5.66419,1.350314 9.98067,4.107486 12.78663,8.137033 0,0 8e-5,1.08e-4 8e-5,1.08e-4 2.67034,3.892766 4.0714,7.787748 4.19805,11.551438 0.1341,3.652765 -0.30565,6.75328 -1.25908,9.242723 -2.02442,4.79198 -3.68358,7.527227 -4.4977,8.336847 -0.29454,1.04714 -0.1183,0.11386 1.04557,-2.75853 0,0 2e-5,-3.9e-5 2e-5,-3.9e-5 0.25919,-3.230526 0.44834,-4.737912 0.12497,-4.630892 0.0557,0.118289 0.75604,1.791239 1.70974,5.192704 1.62079,9.356947 1.04803,15.363267 0.69616,17.654307 -0.23127,2.98942 0.77393,7.72214 1.3899,14.39666 1.01984,6.58414 0.83132,15.18358 -2.2479,25.08969 -1.91082,5.31606 -3.41107,7.50687 -2.99445,7.00449 0.009,-0.0112 0.0196,-0.0238 0.0308,-0.0377 -0.001,-0.43799 -0.0562,1.10519 -0.70827,4.49517 -2.72755,10.61418 -7.26894,18.02101 -11.38552,22.69471 -3.57736,5.10749 -6.34688,7.87474 -6.52804,9.45298 -0.14668,0.40118 -0.7311,2.32223 -2.13768,5.64473 -1.20714,3.61876 -4.51208,7.66644 -9.98914,11.68083 0,0 -8e-5,4e-5 -8e-5,4e-5 -3.59237,1.97923 -6.23283,2.99605 -7.82392,3.22462 0,0 -4e-5,1e-5 -4e-5,1e-5 -1.54481,0.4265 -1.81583,0.39809 -0.94191,0.15054 1.99844,-3.31333 3.95067,-6.6773 5.87051,-10.09656 0,0 1.1e-4,-6e-5 1.1e-4,-6e-5 1.71701,-0.84989 3.0824,-1.69098 4.09832,-2.53798 0,0 7e-5,-6e-5 7e-5,-6e-5 -0.68382,3.79291 -2.08511,7.01822 -4.15244,9.63363 0,0 -8e-5,1e-4 -8e-5,1e-4 -2.05007,2.58482 -4.32179,4.53626 -6.76704,5.84968 0,0 -9e-5,5e-5 -9e-5,5e-5 -4.97573,2.41758 -9.28788,3.33288 -12.76077,2.90852 -6.64582,-0.78828 -9.12599,-1.74378 -7.47666,-1.45724 1.87583,0.38729 3.184,0.10451 4.60689,-0.94709 -7.42823,3.84293 -15.49022,5.65132 -23.50255,5.47467 -7.91304,-0.40454 -15.34285,-2.87856 -21.7426,-7.01091 -2.21403,-1.35681 -3.27832,-2.34905 -2.22758,-1.69575 0,0 1e-5,0 1e-5,0 0.47668,0.15845 -0.5591,-0.21676 -2.95982,-1.32901 -2.70888,-0.89895 -5.86825,-3.70453 -9.19276,-8.43082 -1.77483,-3.6228 -2.58595,-6.15188 -2.58013,-7.52867 0,0 0,-4e-5 0,-4e-5 -0.23949,-1.3006 -0.134,-1.27181 0.15926,0.0564 0,0 10e-6,4e-5 10e-6,4e-5 1.30689,2.63933 0.85096,2.41442 -0.66012,-1.04347 -1.94791,-4.72831 -2.67118,-8.82781 -2.48515,-12.12021 0.0772,-3.25357 0.40144,-5.77055 0.73517,-7.57702 0.52906,-3.12142 0.91691,-6.04653 1.08194,-8.83037 0.67624,-13.76196 1.44585,-26.58511 2.29629,-38.29684 0.23826,-3.74393 0.69155,-7.28221 1.25417,-10.57971 0.1945,-2.83728 1.08886,-4.85989 0.98699,-4.06223 0.28118,0.13817 -0.10266,-0.60667 -0.7737,-2.21399 -2.87277,-6.29283 -3.96068,-12.89396 -3.60447,-19.059852 0.42883,-7.393159 3.27496,-13.697941 6.99789,-18.305786 0.58834,-1.069903 0.79778,-0.557517 0.37933,0.826503 -0.14673,0.834264 0.13662,1.867965 0.72598,3.139382 0,0 1e-5,2.2e-5 1e-5,2.2e-5 0.3397,0.633869 0.84704,1.206661 1.50933,1.741245 0.68399,0.54902 1.51415,0.90991 2.49155,1.11766 0,0 4e-5,2e-6 4e-5,2e-6 1.35791,0.08067 1.8004,0.104416 1.4472,-0.01969 -14.95163,-0.677197 -19.09625,-8.31544 -18.5533,-9.583493 z"
       id="path22"
       inkscape:path-effect="#path-effect23;#path-effect24"
       inkscape:original-d="m 243.14036,78.374915 c 6.5656,-0.394615 12.00193,-0.233402 17.81248,2.671873 0.26554,0.132766 0.68071,-0.209923 0.89063,0 1.04961,1.04961 0,2.968746 0,4.45312 0,3.718999 -0.98279,24.169602 0,27.609342 0.36473,1.27658 1.54375,2.25625 1.78125,3.5625 1.01331,5.57325 0,13.063 0,18.7031 0,12.76562 0,25.53123 0,38.29684 0,2.07347 -0.89704,18.68387 0,21.37497 0.41984,1.25954 1.28816,2.3298 1.78124,3.5625 0.37055,0.92637 0.37018,2.78182 0.89063,3.5625 1.95541,2.93312 2.21909,1.71443 4.45312,2.67187 1.59109,0.6819 2.86202,1.98997 4.45312,2.67187 3.85723,1.6531 21.58398,1.62416 26.71872,0.89063 2.64352,0.48427 4.71021,-1.37879 7.12499,-1.78125 3.42418,-0.5707 7.60132,0.2762 10.68749,-1.78125 0.24701,-0.16468 0,-0.59375 0,-0.89063 0.59375,-0.29687 1.13031,-0.76043 1.78125,-0.89062 2.96299,-0.5926 2.82867,-0.10453 5.34374,-1.78125 2.57945,-1.71963 2.61894,-5.57003 4.45312,-8.01561 6.38483,-8.5131 13.34253,-19.36849 16.92186,-29.3906 0.60736,-1.70061 0.31957,-3.63059 0.89062,-5.34374 1.89344,-5.68031 3.00378,-3.87776 3.5625,-8.90624 1.14058,-10.26526 0,-23.45763 0,-33.84371 0,-3.71353 0.47589,-8.66163 0,-12.46874 -0.37552,-3.00416 -1.40573,-5.902081 -1.78125,-8.906242 -0.37781,-3.022452 1.14764,-10.173469 0,-12.468736 -0.41984,-0.839689 -0.89062,1.733072 -0.89062,2.671872 0,3.859371 0,7.718741 0,11.578112 0,2.968747 0.45142,5.972014 0,8.906244 -0.32864,2.13614 -1.45261,4.09822 -1.78125,6.23436 -0.58685,3.8145 0.3205,7.73208 0,11.57812 -0.26319,3.15825 -0.89062,5.74162 -0.89062,8.90624 0,4.65577 0.0339,8.64742 0.89062,13.35936 0.16794,0.92366 0.79721,1.73773 0.89062,2.67187 0.20678,2.06781 -0.34164,4.18452 0,6.23437 0.26283,1.57697 1.39351,2.90213 1.78125,4.45312 0.21601,0.86403 -0.11047,1.78812 0,2.67187 0.37552,3.00416 1.35309,5.90913 1.78125,8.90624 0.21647,1.51528 -0.46112,3.96038 0,5.34375 2.11199,6.33595 1.13029,-0.41129 3.5625,4.45312 0.66383,1.32766 -0.55129,3.07491 0,4.45312 0.31185,0.77963 1.27743,1.10949 1.78124,1.78124 1.35656,1.80875 1.55014,4.27134 2.67188,6.23437 1.15038,2.01317 3.22423,3.37752 4.45312,5.34375 3.32458,5.31934 6.12554,11.36045 8.90624,16.92185 0.41984,0.83969 0.30416,1.9388 0.89062,2.67188 0.66867,0.83584 1.91499,1.02436 2.67187,1.78124 3.90587,3.90588 -0.65356,1.69612 4.45312,5.34375 2.16001,1.54286 6.50079,3.6513 8.90624,4.45312 1.1513,0.38376 6.44654,0.43832 7.125,0.89062 4.89016,3.26011 -1.74904,0.60449 4.45312,2.67187" />
    <path
       style="fill:#b0801f;fill-opacity:1;stroke:none;stroke-width:5.49356;stroke-linecap:round;stroke-linejoin:round;stroke-dasharray:none;stroke-opacity:1;paint-order:markers fill stroke"
       d="m 435.51516,73.921795 c -0.24497,-2.305623 2.41711,-6.674717 10.54069,-6.550099 2.50667,-0.02592 5.81608,0.680479 9.555,3.261653 3.21585,2.225616 6.03534,6.169357 6.81604,12.31845 0.36037,2.604092 0.27271,2.669551 0.30786,-0.449135 -0.68168,-2.093029 -0.70934,-2.915177 -0.18076,-1.964738 5.39168,7.095894 8.70901,16.333321 8.43428,25.717004 0.007,7.9742 -1.10292,14.44198 -1.97204,20.43427 -0.87423,7.78908 -1.63334,16.25537 -1.39216,24.01181 0.17558,5.6469 0.86663,10.73268 2.2272,15.38724 0.41074,0.83355 1.07036,3.60005 1.59271,8.20955 -0.26528,6.46887 -1.00158,9.40174 -1.31435,9.2678 0.0521,-0.061 -0.0427,-0.91437 -0.16011,-2.52646 -0.0637,-1.75879 -1.08015,-3.88307 -2.91017,-6.49366 0,0 -2e-5,-2e-5 -2e-5,-2e-5 -2.23309,-2.24861 -1.61819,-1.80726 1.33875,1.59932 2.93128,4.09941 4.37,7.94913 4.50149,11.39302 0,0 0,2e-5 0,2e-5 0.18351,3.38548 -0.063,5.93256 -0.58072,7.68105 -0.71464,3.7117 -1.4268,3.87936 -1.30386,1.86451 -1.03693,-2.46727 -0.50918,-1.54655 0.13162,2.34648 0.92637,4.82611 0.83362,8.35326 0.51051,10.73417 -0.17774,2.61112 -0.7612,4.28603 -0.98132,5.04746 -0.18697,0.72739 0.48988,3.87884 0.69652,7.95452 -0.22291,3.79818 -1.07608,5.09175 -1.58173,5.34157 -1.3033,0.4286 -2.07142,2.20824 -2.52395,3.84459 -0.43517,1.57357 -0.64657,3.35471 -1.47025,4.55384 -0.82291,1.198 -2.51111,2.08374 -5.15001,1.28311 -2.58738,-0.78501 -6.1722,-3.27656 -7.75047,-8.91594 -0.66461,-2.44233 -0.95097,-4.2026 -1.58173,-3.56467 -0.23142,0.61982 -1.34687,0.35341 -2.86598,-2.73298 -1.86408,-3.7375 -2.99087,-7.20892 -3.75855,-10.05804 -0.82091,-2.41936 -1.37705,-4.17669 -2.05601,-4.44155 -0.64353,-0.19934 -2.17872,-3.09235 -3.43087,-10.12224 -0.015,-5.68528 0.4688,-8.91259 0.43224,-8.98355 -0.19806,-0.0388 -0.26173,0.65482 -0.29938,2.20041 0,0 0,1e-5 0,1e-5 -0.0855,1.63972 0.72655,3.6801 2.48405,6.34675 1.70609,1.89957 1.24851,1.8358 -2.22372,-1.96317 0,0 -3e-5,-3e-5 -3e-5,-3e-5 -2.85488,-3.92534 -4.42643,-7.70203 -4.67121,-11.14353 -0.29596,-3.27119 -0.22157,-5.81109 0.12937,-7.53766 0.27886,-3.47526 0.627,-3.66497 0.15721,-0.66485 0.36343,2.15419 0.19053,2.62482 -0.18855,1.08455 -2.88358,-8.08379 -4.56421,-16.60344 -5.02751,-25.31745 -0.64881,-12.20315 1.1487,-23.51937 4.08131,-33.25214 1.91232,-6.95692 3.9634,-11.74699 4.90063,-15.48503 0.88051,-4.496222 1.89731,-7.229863 1.56161,-9.613623 -0.18658,-0.217995 -0.96097,-2.151008 -1.96202,-5.527235 -0.40827,-4.97999 -0.0529,-6.580698 0.30786,-5.792879 0.81571,2.030727 1.58571,2.340436 2.35554,2.068512 0.75627,-0.43252 0.38201,-1.427557 -0.23449,-2.519644 -2.07052,-3.233946 -5.19432,-5.543487 -5.49052,-8.331346 z"
       id="path24"
       inkscape:path-effect="#path-effect25;#path-effect26"
       inkscape:original-d="m 435.51516,73.921795 c 2.20427,3.061416 5.51957,-0.107791 8.01561,0.890624 2.35875,0.943499 6.30342,5.55089 7.12499,8.015617 0.28164,0.84492 -0.17466,1.798543 0,2.671872 0.13019,0.650941 0.82457,1.12071 0.89063,1.781248 1.12165,11.216485 -1.56502,24.669824 0,35.624964 2.30605,16.14238 -0.58672,32.73351 0.89062,48.98432 0.11082,1.21902 0.7388,2.3479 0.89063,3.5625 0.34796,2.78369 -1.0405,7.19562 0,9.79686 0.31185,0.77963 1.51571,0.98465 1.78124,1.78125 1.06616,3.19848 -0.8199,7.40786 0,10.68749 1.83652,7.34607 0.14722,-8.47196 1.78125,6.23436 0.5613,5.05164 1.43883,10.20843 2.67187,15.14061 0.45539,1.82154 1.41302,3.50261 1.78125,5.34375 0.29111,1.45555 -0.4694,3.04492 0,4.45312 0.83211,2.49631 2.28875,8.01561 4.45312,8.01561" />
    <path
       style="fill:#b0801f;fill-opacity:1;stroke:none;stroke-width:5.49356;stroke-linecap:round;stroke-linejoin:round;stroke-dasharray:none;stroke-opacity:1;paint-order:markers fill stroke"
       d="m 442.64015,31.171841 c -2.28428,1.37012 -5.36247,1.766072 -6.53594,3.752671 0,0 0,10e-7 0,10e-7 -0.49763,0.842169 -0.69494,1.920249 -0.14374,2.826394 0.43329,0.701322 1.1686,1.323286 2.27211,1.439725 0.95234,0.08932 2.00227,-0.07903 3.0367,-0.828055 0.41786,-0.346599 0.60739,-0.125238 0.37777,0.804377 -0.56763,2.55652 -1.14978,4.759518 -1.20257,5.999862 0,-10e-7 0,2e-6 0,2e-6 0.39435,1.883168 0.45222,1.954711 1.15001,-0.794945 -0.28184,-2.505617 -0.79633,-4.257269 -2.39171,-5.416952 -1.13256,-0.767614 -1.92681,-1.230402 -2.61618,-1.267314 -0.15319,-0.0082 -0.29956,0.0047 -0.44231,0.03852 -0.65413,0.1839 -0.64808,0.207577 -0.13711,0.32016 0.56352,0.06358 1.59512,-0.422444 2.97233,-1.125213 0.94036,-0.558231 1.7545,-0.92228 2.38404,-1.194806 0.22593,-0.336384 0.4268,1.046205 0.24227,3.350356 0.022,1.303124 0.52036,2.783977 1.31675,4.429708 0.86857,1.804762 2.44263,3.214702 4.49466,4.420404 2.05307,0.809246 1.65819,0.48468 -0.42685,-0.955109 -4.03195,-3.441377 -5.28779,-5.836145 -5.32344,-7.279336 -0.44746,-1.315875 0.89953,-1.608247 2.08549,-1.534941 1.44924,-0.141075 2.20956,-1.114992 2.46469,-2.000209 0.64138,-2.290072 -2.15656,-3.668667 -3.57699,-4.985283 -1.16533,-1.080173 -3.19583,-4.710409 1.46265,-7.700787 1.83416,-1.1593 4.68229,-1.982014 8.11257,-1.065985 3.29832,1.170986 6.10963,2.766515 7.44948,3.785447 1.4023,0.42185 1.65824,0.192975 7e-5,-1.912234 -0.92514,-0.78516 -0.0881,-0.763329 3.13563,0.826139 3.25008,2.01316 5.76727,4.65006 7.19,7.879507 1.32261,2.998975 1.99557,5.987809 1.88188,8.807457 -0.44209,5.177971 -1.56276,9.256935 -3.0182,11.544736 -1.34349,2.817924 -2.94865,5.419078 -4.74094,7.711434 -2.42319,3.257378 -5.84897,6.544293 -10.51057,9.44773 -4.40985,2.768486 -9.98251,4.60493 -16.54289,4.935966 -1.19704,0.05942 -2.40505,0.04182 -3.61966,-0.05499 -5.4563,-0.434921 -10.80766,-2.448014 -15.69335,-5.849775 -6.46828,-4.579757 -10.30956,-11.528835 -11.46721,-19.492226 -0.31035,-9.212001 1.88687,-15.165696 4.71251,-18.607425 0,0 1e-5,-3e-6 1e-5,-3e-6 1.70464,-2.49421 3.14365,-3.897654 4.14116,-4.687623 0.34332,-0.298935 1.07577,-1.302391 2.15903,-2.758118 2.49736,-3.182366 5.58054,-5.223305 8.71972,-6.370666 3.63883,-1.313356 7.08438,-1.289112 9.94845,-0.582883 3.62843,0.908722 6.10022,2.905164 7.53261,4.849001 0,0 0,3e-6 0,3e-6 3.49854,4.775335 1.02302,8.170077 -0.85293,9.29528 z"
       id="path26"
       inkscape:path-effect="#path-effect27;#path-effect28"
       inkscape:original-d="m 442.64015,31.171841 c -3.3894,-0.357567 -10.08581,-2.455168 -13.35936,0 -0.53107,0.3983 -0.59375,1.187499 -0.89063,1.781248 -0.89062,1.781249 -1.93225,3.494687 -2.67187,5.343745 -0.66741,1.668531 -2.90523,6.658267 -1.78125,8.90624 1.96944,3.938865 23.46683,4.542927 27.60935,1.781248 1.26884,-0.845891 2.88389,-3.095912 3.56249,-4.45312 0.4096,-0.819185 0.56582,-6.883981 0,-8.015616 -0.98461,-1.969219 -0.55276,-0.27638 -1.78124,-0.890624 -2.45468,-1.227339 -3.06457,-4.204157 -5.34375,-5.343745 -1.61517,-0.807586 -3.59184,0.452649 -5.34374,0.890624 z" />
    <path
       style="fill:#b0801f;fill-opacity:1;stroke:none;stroke-width:5.49356;stroke-linecap:round;stroke-linejoin:round;stroke-dasharray:none;stroke-opacity:1;paint-order:markers fill stroke"
       d="m 301.03093,289.45281 c -0.87939,3.49805 -11.46124,3.35045 -24.31842,9.54799 -4.76942,2.22184 -10.29762,5.99111 -18.93901,9.74312 -8.713,3.81743 -17.70992,5.94636 -23.28997,9.66945 -3.53527,2.0207 -7.63012,5.67618 -13.6372,9.88397 -4.17421,2.98427 -8.25276,5.5856 -10.96652,7.84372 -2.57587,2.29315 -4.64139,4.17681 -5.20775,5.73718 0,0 0,10e-6 0,10e-6 -0.28055,0.50445 -1.00385,2.04 -2.49169,4.49988 0,0 -1e-5,2e-5 -1e-5,2e-5 -2.29519,3.60863 -4.1358,5.92091 -4.9427,7.17835 -0.55334,1.36015 -0.80048,1.33563 -0.14291,0.04 0.11792,-1.20555 0.28707,-1.63377 0.23058,-1.43246 0.0183,0.24375 0.49258,1.10079 1.18092,2.657 1.7618,2.90019 4.55657,8.67251 6.31611,17.85573 0.333,2.92362 0.32938,4.25958 0.34578,3.93547 0,0 0,-10e-6 0,-10e-6 0.31668,-0.50073 -0.56507,-2.15153 -2.40769,-5.28725 -0.23816,-0.44485 -0.5648,-0.79345 -0.98897,-1.05384 2.9557,3.34415 5.09233,7.15129 6.36575,11.35036 0.31495,2.92634 0.46818,5.04578 0.52702,6.35138 0.0756,1.6774 -0.005,2.00065 -0.0961,0.9816 -0.46223,-2.68285 -0.42881,-3.59014 -0.40992,-2.79199 0,0 0,1e-5 0,1e-5 0.4044,0.71956 1.56432,3.01935 3.02451,7.06251 0,0 10e-6,4e-5 10e-6,4e-5 1.04915,3.70773 1.408,5.90486 1.47416,6.50704 0.37394,0.47447 -0.21799,-0.33409 -1.42875,-2.65255 0,0 -2e-5,-2e-5 -2e-5,-2e-5 -0.8041,-0.95031 -0.67987,-0.90843 0.26223,0.24785 1.1458,1.02941 2.69154,3.43351 4.4732,7.2426 0,0 3e-5,8e-5 3e-5,8e-5 0.86452,2.5201 1.2012,3.7529 1.11383,3.67862 0,0 -1e-5,0 -1e-5,0 0.13871,-0.1678 -0.49399,-1.49245 -1.80211,-4.02072 -2.93346,-3.46594 -4.44397,-5.08549 -4.79762,-4.75412 0.0846,-0.15077 1.94842,1.09277 5.38707,3.91222 3.91707,4.54165 5.84302,7.85122 6.06075,9.6937 0,0 1e-5,2e-5 1e-5,2e-5 0.73098,1.56296 0.34484,1.22578 -0.77575,-1.01767 -2.18057,-2.46708 -3.1494,-3.58371 -3.27949,-3.23637 0.13714,0.0809 1.78863,0.97723 4.70416,2.95236 4.47529,3.6958 6.56263,6.17823 6.94461,6.86738 1.45848,2.31775 5.25736,4.07307 9.23158,5.25227 0.92255,0.13298 3.36099,0.60376 7.13977,1.78203 4.41279,1.83848 6.90075,3.39794 7.81714,4.1905 1.11844,0.40597 0.42333,0.58997 -1.67665,0.059 0,0 -2e-5,0 -2e-5,0 -1.10319,0.0469 -0.967,0.007 0.35624,0.0749 5.07711,0.11418 9.08291,0.75636 11.9831,1.2484 2.93876,0.4806 6.00105,0.81886 9.05141,1.09452 10.13325,0.83177 19.39145,1.77134 27.60935,2.80174 2.94402,0.29545 4.87277,0.75984 6.11914,0.72792 1.52308,0.0751 3.15343,-0.27121 4.55405,-0.87567 0,0 0,-1e-5 0,-1e-5 1.17825,-0.50529 3.0844,-2.14125 5.5707,-3.75246 2.17997,-1.31645 3.88183,-1.88523 4.94154,-2.20585 1.26067,-0.48372 2.13922,-0.47738 2.67236,-0.6041 0.61925,-0.0617 1.27546,-0.4679 1.78334,-0.93918 0,-1e-5 0,-1e-5 0,-1e-5 1.23064,-1.13386 1.72699,-2.92291 2.85882,-3.56251 0.8335,-0.47103 3.44522,-0.36072 4.73276,3.56251 0,0 0,1e-5 0,1e-5 0.50941,1.56328 0.70942,3.743 -0.0906,6.1858 -0.8609,2.35179 -2.2514,4.56743 -3.87612,6.23769 -1.20319,1.37231 -2.40845,2.60587 -2.75996,3.4211 -0.42032,0.78788 -1.30476,2.71296 -3.33553,5.15377 0,0 -1e-5,0 -1e-5,0 -2.71504,3.20802 -6.45243,6.10972 -11.20699,7.96569 -4.34665,1.56048 -8.43633,2.27262 -11.96352,2.57406 -8.2179,1.0304 -17.4761,1.96997 -27.60935,2.80174 -3.57775,0.27607 -7.40892,0.43804 -11.44325,0.38057 -3.67704,-0.0142 -6.66456,-0.16457 -8.49094,0.18109 -0.45319,0.12764 -2.09809,0.22105 -4.9875,0.0749 0,0 -4e-5,-10e-6 -4e-5,-10e-6 -5.68513,-0.92418 -9.62863,-2.39387 -11.68741,-3.84912 -2.1741,-1.01968 -2.71992,-1.475 -1.76582,-0.80759 0.89435,0.20785 0.36055,0.35961 -1.76647,7.9e-4 -10.1726,-1.09861 -20.88695,-5.56033 -29.95588,-14.34147 -2.48673,-2.33371 -2.99585,-3.27449 -1.96163,-2.03886 1.46351,0.85246 -0.50672,-0.0893 -1.97023,-0.9418 -2.34577,-0.94554 -5.47643,-3.61737 -9.07384,-8.24845 -2.22524,-3.93473 -3.18489,-6.18588 -3.15005,-6.53237 0,0 1e-5,0 1e-5,0 -0.46575,-0.0367 0.63012,1.3675 3.09131,4.52094 2.33819,1.77387 2.88003,2.36578 1.64538,1.45126 -1.64728,-0.41457 -4.44967,-2.90119 -8.18093,-7.6369 -1.80882,-3.32517 -2.72042,-5.56495 -2.81324,-6.6474 0,0 -10e-6,-3e-5 -10e-6,-3e-5 -0.32084,-0.9943 -0.16989,-0.67407 0.34373,0.96162 0,0 2e-5,5e-5 2e-5,5e-5 1.23177,2.42578 1.85452,3.62648 2.01903,3.52897 -0.0404,0.0274 -0.95474,-0.98777 -2.62732,-3.16349 0,0 -4e-5,-5e-5 -4e-5,-5e-5 -3.00821,-4.85735 -4.50421,-8.73244 -4.77017,-11.32591 -0.5685,-2.43763 -0.61777,-3.36298 -0.52815,-2.63205 0,0 0,1e-5 0,1e-5 0.38865,0.719 -0.18359,-0.0412 -1.28253,-2.50235 0,0 -1e-5,-2e-5 -1e-5,-2e-5 -1.47012,-2.35356 -2.71952,-6.62756 -3.22787,-12.82082 -0.10915,-2.35791 -0.027,-3.38049 0.10431,-3.04496 0.10223,0.26126 0.23367,1.34536 0.32657,3.25294 0.98732,2.88673 2.50469,5.45729 4.58451,7.78786 -1.08692,-0.7804 -2.01291,-1.72859 -2.77023,-2.83508 -3.56284,-5.32802 -5.22432,-9.76425 -5.27439,-13.01094 0,0 0,-3e-5 0,-3e-5 -0.35255,-3.08723 -0.34792,-4.54495 -0.35002,-4.37206 0.693,0.41464 -0.95196,-1.73447 -2.82773,-6.67464 -1.17081,-2.44673 -2.3852,-5.65443 -3.39363,-9.65 -1.09553,-4.08879 -1.2656,-8.98999 -0.30101,-14.47003 1.69751,-6.50047 4.12174,-11.12651 6.58758,-14.02287 2.25692,-3.04791 3.85117,-4.71988 4.35805,-5.47745 0,0 0,0 0,0 0.39448,-0.47317 1.26547,-2.02213 2.85203,-4.40631 0,0 1e-5,-2e-5 1e-5,-2e-5 4.7302,-6.62838 10.04893,-11.26915 15.07649,-14.41883 5.07223,-3.31099 9.78908,-5.71417 13.28044,-7.62523 5.2521,-2.95995 10.8071,-6.51166 18.42526,-9.70977 11.25222,-4.2571 22.43904,-5.29198 28.36623,-6.36177 6.81829,-1.26179 14.58688,-3.65863 22.02969,-4.50688 21.33988,-2.25435 29.66769,7.36558 29.11904,9.54799 z"
       id="path28"
       inkscape:path-effect="#path-effect29;#path-effect30"
       inkscape:original-d="m 301.03093,289.45281 c -8.70467,1.0976 -18.09911,-1.5672 -26.71873,0 -6.73764,1.22503 -14.13215,5.0076 -20.48435,7.125 -7.06778,2.35592 -19.52658,4.41474 -25.8281,8.01561 -5.39364,3.08208 -10.72508,6.48053 -16.03123,9.79687 -8.06711,5.04194 -16.30147,10.14431 -22.2656,17.81248 -1.06277,1.36641 -1.6091,3.0867 -2.67187,4.45312 -4.10774,5.28137 -6.30316,5.9387 -8.01562,13.35936 -2.09684,9.08631 3.95752,17.01877 7.12499,24.93747 0.97045,2.42611 1.06243,5.49974 1.78125,8.01562 0.11534,0.40369 0.59375,0.59375 0.89063,0.89062 0.29687,0.59375 0.72962,1.13724 0.89062,1.78125 0.28801,1.15204 -0.23289,2.39806 0,3.5625 0.68147,3.40735 2.46366,6.50035 3.5625,9.79686 0.8531,2.55931 1.30561,6.51528 2.67187,8.90624 0.73645,1.2888 1.93542,2.2737 2.67187,3.5625 0.46578,0.8151 0.28962,1.95066 0.89062,2.67187 0.95028,1.14033 2.65118,1.50018 3.5625,2.67187 1.22266,1.57199 1.47698,3.75055 2.67187,5.34374 1.34086,1.78781 4.551,3.01023 6.23437,4.45312 1.59385,1.36616 2.75541,3.21842 4.45312,4.45312 4.05392,2.94831 14.93372,8.00456 19.59373,9.79687 1.41287,0.54341 3.03573,0.3591 4.45312,0.89062 3.35875,1.25954 6.4187,3.24663 9.79686,4.45312 0.83874,0.29955 1.78813,-0.11046 2.67188,0 6.94407,0.86801 13.36152,0.89063 20.48435,0.89063 9.20312,0 18.40623,0 27.60935,0 5.81574,0 12.23853,-1.59709 16.92185,-5.34375 1.64931,-1.31944 2.72135,-3.21614 4.45312,-4.45312 3.83687,-2.74062 4.02744,-2.10429 7.12499,-6.23437 0.94764,-1.26351 3.70813,-7.12499 0,-7.12499" />
    <path
       style="fill:#b0801f;fill-opacity:1;stroke:none;stroke-width:5.49356;stroke-linecap:round;stroke-linejoin:round;stroke-dasharray:none;stroke-opacity:1;paint-order:markers fill stroke"
       d="m 374.0621,346.45275 c 0.17996,-1.85243 4.71084,-4.35129 13.72038,-3.07607 2.6764,0.33971 5.73554,1.03366 7.13171,0.58636 0,0 10e-6,0 10e-6,0 1.05542,-0.15419 2.61518,-0.76893 5.19163,-1.27783 5.8125,-1.40242 14.16711,-2.85433 24.02507,-1.412 4.92954,0.8072 8.56301,2.02283 10.30001,1.69641 0.78107,-0.14832 1.14859,-0.2411 0.85191,-0.44426 -0.38578,-0.19897 -0.94546,0.0425 -2.11948,0.86155 -0.59793,0.1672 0.91473,-1.48566 5.07545,-4.70498 2.58719,-1.32554 4.2811,-1.98958 4.98422,-2.06373 0.62292,-0.27552 0.21285,-0.10838 -1.30675,0.41093 -2.28364,1.25095 -3.73584,2.32784 -4.29305,3.38738 -0.56573,0.92001 -0.82698,1.17269 -0.64968,0.77195 0.71575,-2.43062 0.92055,-5.60368 1.37181,-9.86311 0.3159,-3.95485 0.7243,-9.00255 1.94498,-14.80823 1.66785,-7.52924 3.93207,-12.87177 3.97024,-15.9349 0.0133,-1.42924 0.0429,-2.33269 -0.21901,-2.40778 -0.26647,0.0556 -0.0585,0.32472 0.67525,1.45782 0.72212,0.61416 0.95779,0.94923 0.97389,0.91334 -0.0446,-0.0269 -0.63175,0.0331 -1.68175,-0.004 0,0 -10e-6,0 -10e-6,0 -2.09663,-0.0623 -6.15887,0.79418 -12.48709,1.06001 -5.33508,0.19953 -8.94938,-0.13457 -10.6491,0.15379 -2.03727,0.47587 -3.66954,0.78403 -3.63021,1.23376 0.0773,0.27949 -2.35444,2.25449 -7.72672,5.33633 0,0 -6e-5,4e-5 -6e-5,4e-5 -4.75986,1.78442 -7.47676,2.41654 -7.96118,2.30964 -1.35341,0.0238 -2.90585,0.63832 -4.21861,1.53419 -1.10695,0.7554 -2.02342,1.69753 -2.49244,2.62874 -1.27113,3.61418 -3.29054,6.84123 -5.9724,9.57357 -2.09994,2.22119 -3.07576,3.01398 -2.69166,2.65206 0.52363,-1.33945 0.63955,-0.56344 -0.47995,1.7107 -0.1192,0.50557 -0.57701,1.85405 -1.45993,4.00009 -0.81793,2.24533 -2.66586,4.89101 -5.57765,7.83096 -1.99372,1.68293 -2.62781,2.14286 -1.80692,1.46421 1.19282,-0.44637 2.77915,-2.81238 4.89013,-7.05546 0,0 4e-5,-1.9e-4 4e-5,-1.9e-4 1.03348,-4.87954 1.37974,-7.3342 0.87502,-7.44975 0,0 -2e-5,0 -2e-5,0 0.27519,-0.0579 0.29547,2.34366 -0.1134,7.16116 -1.67217,5.61216 -3.35319,8.92419 -4.85053,9.98048 0,0 -5e-5,3e-5 -5e-5,3e-5 -0.98874,1.31249 -0.78841,0.85824 0.71004,-1.20089 1.65382,-4.00055 2.37957,-5.91951 1.92146,-5.98454 0,0 0,0 0,0 0.14162,0.0998 -0.0731,2.37185 -0.95124,6.70698 -2.294,5.95341 -3.60938,8.15395 -2.91483,6.42087 0.60066,-1.92976 0.89402,-2.72395 0.66448,-2.5907 -0.0827,0.19351 -0.0125,1.48972 -0.0588,3.83884 -0.21622,5.65412 -1.0033,10.06361 -1.64115,13.24662 -0.48109,3.30495 -0.9953,5.3876 -0.86421,6.42752 -0.39354,1.72404 1.1273,4.87892 2.91518,8.96258 2.1731,4.23837 5.42917,9.49474 8.33946,16.0337 3.04496,6.91751 3.90409,11.63661 5.2171,13.80622 0.78306,2.02772 3.12118,4.44837 5.81639,7.28405 3.23139,3.17318 6.72529,6.32548 10.50012,10.71632 0.709,0.82371 1.00664,1.28891 1.00367,1.36166 -0.22765,0.48457 0.81216,1.09817 2.22486,1.85101 1.6077,0.74881 4.16499,1.07549 6.95419,1.44079 0.89113,0.0938 1.96692,0.18337 3.35429,0.35588 5.28689,0.85501 8.87088,2.53492 10.84536,3.37078 5.53966,2.3162 11.27224,2.56111 15.09133,2.65815 3.97514,0.101 6.6229,0.13694 7.43441,1.48667 0.75636,1.258 -0.24424,4.02929 -4.28607,7.08843 -3.82595,2.89574 -11.20145,6.40861 -21.28194,5.96267 -3.72679,-0.14305 -7.26412,-0.7042 -8.74837,-0.19172 -0.38723,0.086 -1.0466,0.23023 -1.98947,0.35588 -3.08439,0.48168 -7.03981,0.82694 -11.80011,0.3492 -4.47416,-0.38567 -9.57864,-2.11322 -14.6458,-5.96364 -1.24142,-1.03918 -2.08507,-1.8103 -2.55881,-2.20084 -2.44514,-2.01471 -5.88957,-4.11271 -10.08403,-7.18836 -3.91031,-2.70261 -8.46806,-6.54701 -12.78691,-12.21746 -4.64107,-6.82556 -7.07103,-12.99157 -9.03291,-16.47501 -1.83099,-3.31032 -5.05189,-7.32994 -8.65321,-13.09589 -3.67262,-5.37651 -7.1167,-12.8016 -8.59211,-22.47027 -0.53565,-6.02075 -0.18935,-11.03594 0.39425,-14.92371 0.39535,-3.80043 0.85367,-6.58597 0.66289,-8.15209 -0.0359,-0.64052 -0.16951,-2.37294 -0.12985,-5.19285 -0.10733,-2.86187 0.64208,-6.70009 2.51675,-11.37149 1.79516,-4.08979 2.25031,-4.13123 0.64767,-0.70413 -0.39545,2.56562 -0.64843,3.02221 -0.41888,1.28135 0,0 1e-5,-4e-5 1e-5,-4e-5 -0.37269,-1.87969 0.58092,-5.67871 3.17033,-11.24637 2.05534,-2.99091 3.02495,-4.2085 2.738,-3.72793 0,0 -2e-5,1e-5 -2e-5,1e-5 -0.80116,0.23096 -1.84073,2.61625 -3.31602,7.1638 -0.24581,3.93646 -0.3799,5.43 -0.22334,4.48197 0,0 -2e-5,-4e-5 -2e-5,-4e-5 -0.62293,-1.00459 -0.35473,-4.38971 0.98495,-10.11423 0,0 5e-5,-2.2e-4 5e-5,-2.2e-4 2.40066,-5.04243 4.59531,-8.05318 6.44648,-9.0402 1.47858,-1.21878 1.56544,-1.21916 0.19923,-0.11355 -1.92373,2.03055 -3.05213,3.50516 -3.32625,4.51817 -0.33941,0.91395 -0.42291,0.97439 -0.14883,0.1879 0.83427,-4.11889 3.35606,-9.73692 8.42629,-16.10178 2.07482,-2.22189 3.05304,-3.04409 2.65208,-2.6917 -0.34534,0.1622 -0.53327,0.34548 -0.62866,0.66733 3.23231,-6.14695 7.58124,-11.49278 12.81007,-15.79078 6.1986,-5.09515 13.51783,-8.62307 21.4476,-10.32751 1.97572,-0.56852 1.65672,-0.22195 -0.8362,0.5284 0,0 -3e-5,3e-5 -3e-5,3e-5 -2.35197,1.62495 -3.268,1.82351 -0.60175,-0.007 8.04831,-6.21132 16.74768,-9.1693 24.86975,-9.45374 6.07194,-0.29389 10.19701,0.14549 12.50712,0.15379 2.74142,0.039 7.59657,-0.61977 14.3464,-0.45219 0,0 3e-5,0 3e-5,0 3.46308,0.0806 7.36261,0.71019 11.56254,2.02882 4.3212,1.3288 8.59997,3.84422 12.55227,7.51813 5.11595,5.28521 8.04931,11.17501 9.01368,17.00703 0.99204,5.82979 0.78534,11.01904 -0.19559,15.39921 -1.95779,8.70209 -5.01257,15.01061 -6.17285,18.39632 -1.03077,2.81566 -1.74095,6.81728 -2.69785,11.24557 -0.92013,4.78409 -2.29073,10.11017 -4.67286,15.73929 -0.37421,1.0324 -1.23239,2.69094 -2.64482,4.87139 -1.41215,2.33222 -3.98566,4.52073 -7.64165,6.41294 -2.37797,0.92009 -3.71057,1.29343 -4.00041,1.24393 -0.21384,0.15191 0.55808,-0.25938 2.33414,-1.11549 2.64556,-2.32972 3.2763,-2.59285 1.51295,-1.14248 -3.84521,3.7962 -8.06141,5.93281 -12.19093,6.65645 -4.18609,0.75152 -7.83393,0.62167 -10.86559,-0.0601 -6.19583,-1.41927 -10.29872,-3.55026 -12.44224,-4.48262 -4.48105,-2.12461 -11.39394,-2.64097 -16.94363,-3.19324 -2.60025,-0.13903 -5.63801,-0.39517 -9.05835,-1.27783 0,0 0,0 0,0 -4.49066,-1.43665 -7.28599,-3.52052 -8.89952,-4.7574 -5.63389,-4.16872 -9.65864,-6.12635 -9.43584,-8.41981 z"
       id="path30"
       inkscape:path-effect="#path-effect31;#path-effect32"
       inkscape:original-d="m 374.0621,346.45275 c 11.93225,5.96613 -1.58327,0.20411 11.57811,2.67187 2.76816,0.51903 5.24207,2.18243 8.01562,2.67188 2.33885,0.41274 4.75327,-0.12483 7.12499,0 23.04999,1.21315 -4.0263,0.89062 20.48435,0.89062 1.73164,0 19.914,1.1758 22.2656,0 0.75104,-0.37552 1.06122,-1.34923 1.78125,-1.78125 0.80501,-0.48301 1.95067,-0.28962 2.67187,-0.89062 1.14033,-0.95028 1.7216,-2.42217 2.67187,-3.5625 6.35057,-7.62067 4.51055,-16.66287 5.34375,-25.8281 0.48576,-5.34334 4.11666,-29.54233 0.89062,-33.84371 -3.13605,-4.1814 -21.19772,-3.5625 -25.8281,-3.5625 -3.54666,0 -8.09248,-0.69712 -11.57811,0 -4.70358,0.94072 -10.13364,3.12726 -14.24998,5.34375 -1.30695,0.70374 -2.23483,2.00804 -3.5625,2.67187 -1.09482,0.54741 -2.43742,0.40845 -3.56249,0.89062 -7.09287,3.0398 -15.47331,9.2944 -20.48436,15.14061 -1.68519,0.9879 -1.59048,3.10139 -2.67187,4.45312 -0.78682,0.98353 -2.01175,1.59918 -2.67187,2.67188 -1.73956,2.82679 -2.96875,5.93749 -4.45312,8.90624 -0.59375,1.18749 -1.04479,2.45781 -1.78125,3.56249 -0.46578,0.69867 -1.4694,1.00162 -1.78125,1.78125 -0.33077,0.82692 0.28164,1.82695 0,2.67187 -0.33849,1.01547 -1.38371,1.67804 -1.78125,2.67187 -0.67066,1.67666 -0.25656,3.65291 -0.89062,5.34375 -0.46617,1.24313 -1.41651,2.28591 -1.78125,3.5625 -0.77297,2.7054 -0.54147,6.11302 -0.89062,8.90624 -0.90549,7.24391 -1.78125,13.9676 -1.78125,21.37497 0,11.53227 7.81196,21.26799 14.24998,30.28122 3.32063,4.64888 4.14275,10.36902 7.125,15.14061 5.14447,8.23116 12.30437,12.87162 19.59373,18.7031 0.65568,0.52455 0.99211,1.49429 1.78124,1.78125 4.4892,1.63243 12.92781,3.47619 17.81248,4.45312 0.87333,0.17467 1.80784,-0.21601 2.67188,0 9.77114,2.44279 -1.22813,1.78125 9.79686,1.78125 6.45405,0 20.65703,2.32653 24.04685,-4.45312" />
  </g>
</svg>
